# Blender v2.75 (sub 0) OBJ File: ''
# www.blender.org
mtllib GokuLShin.mtl
o Mesh.103_DrawCall_144
v -0.683788 0.049057 0.532747
v -0.813839 -0.144894 -0.307398
v -0.633636 -0.448644 0.589346
v -0.460202 0.076056 -0.713264
v -0.531765 0.419991 -0.944569
v 0.205667 0.524816 -0.997899
v 0.318180 -0.318795 -0.966694
v -0.250773 -0.580110 -0.546964
v -0.427721 -0.428184 -0.912735
v 0.250445 -0.504484 -0.583136
v 0.815953 -0.311655 -0.437058
v 0.569806 -0.521254 -0.314070
v 0.865320 -0.386210 0.507363
v 0.637711 -0.627136 0.203311
v 0.630848 0.200369 -0.393824
v 0.278561 -0.009578 -0.975909
v 0.282035 0.181350 -0.766973
v -0.837629 0.804548 -0.236917
v 0.761883 0.749283 0.356226
v 0.396552 0.582952 0.843859
v 0.330060 -0.222150 0.789427
v -0.308400 0.483003 0.894138
v -0.265390 0.103428 0.890410
v -0.751618 0.535610 0.464337
v -0.471634 0.027301 0.986787
v -0.386079 -0.358176 0.561690
v 0.150482 -0.458664 0.712115
v -0.686599 0.007869 -0.302576
v -0.974191 0.384593 -0.356050
v -0.754883 -0.555735 -0.325845
v -0.103004 -0.810059 0.576818
v -0.388985 -0.781905 0.276786
v -0.457421 -0.676106 -0.240554
v 0.108464 1.146002 -0.671972
v 0.555025 1.012277 -0.334732
v -0.582568 1.045687 -0.622108
v -0.464996 -0.114937 -0.922205
v 0.396708 -0.734663 0.540766
v 0.836621 0.220792 0.405512
v 0.849792 0.098191 -0.426271
v 0.798743 0.647835 -0.482952
v 0.763559 0.140532 0.912598
v 0.472461 -0.391538 0.913635
vt 0.128910 0.178220
vt 0.010960 0.073820
vt 0.128910 0.065430
vt 0.860630 0.104220
vt 0.860630 0.164760
vt 0.713070 0.164760
vt 0.713070 0.043210
vt 0.860110 0.006160
vt 0.860630 0.043210
vt 0.712890 0.006160
vt 0.581050 0.056520
vt 0.581050 0.006160
vt 0.462490 0.058590
vt 0.448240 0.006160
vt 0.581050 0.120330
vt 0.713070 0.072020
vt 0.713070 0.104220
vt 0.351350 0.263120
vt 0.350770 0.123840
vt 0.463870 0.263120
vt 0.249510 0.263120
vt 0.249510 0.166660
vt 0.128910 0.259190
vt 0.226560 0.140630
vt 0.187500 0.089840
vt 0.296880 0.064850
vt 0.010960 0.102840
vt 0.010960 0.178220
vt 0.010960 0.270900
vt 0.010960 0.056520
vt 0.251710 0.008090
vt 0.128910 0.008090
vt 0.010960 0.008090
vt 0.712890 0.297760
vt 0.581050 0.274840
vt 0.860110 0.297760
vt 0.988040 0.270940
vt 0.988040 0.178220
vt 0.988040 0.108730
vt 0.988040 0.071900
vt 0.860630 0.072020
vt 0.988040 0.054600
vt 0.988040 0.006160
vt 0.343870 0.007720
vt 0.494780 0.167970
vt 0.581050 0.081510
vt 0.581050 0.189820
vt 0.439450 0.149410
vt 0.370300 0.081270
vn -0.912500 -0.179000 0.367800
vn -0.959200 0.220400 -0.177200
vn -0.638700 -0.260100 0.724200
vn -0.621900 0.066700 -0.780200
vn -0.449900 -0.106400 -0.886700
vn 0.290000 0.008800 -0.956900
vn 0.352700 -0.451900 -0.819300
vn 0.003800 -0.923200 -0.384200
vn -0.376200 -0.528500 -0.761000
vn 0.256100 -0.875400 -0.409900
vn 0.822900 -0.431900 -0.369200
vn 0.550800 -0.770200 -0.321500
vn 0.726500 -0.242600 0.642800
vn 0.763600 -0.642600 -0.062500
vn 0.782000 0.340100 -0.522200
vn 0.247300 0.385900 -0.888800
vn 0.438600 0.156000 -0.885000
vn 0.552400 -0.101500 0.827400
vn -0.195700 0.072800 0.977900
vn 0.927200 0.261500 0.268300
vn -0.340100 -0.071500 0.937700
vn 0.087200 0.272300 0.958200
vn -0.903500 0.038500 0.426900
vn -0.396600 -0.011300 0.917900
vn -0.299300 -0.026500 0.953800
vn -0.328300 -0.166600 0.929700
vn -0.960800 0.071600 -0.267600
vn -0.961100 -0.117100 -0.250100
vn -0.933700 0.290800 -0.208900
vn -0.788500 -0.575400 -0.216900
vn -0.246100 -0.506600 0.826300
vn -0.595900 -0.765100 0.243900
vn -0.279200 -0.929400 -0.241000
vn 0.257300 0.480200 -0.838500
vn 0.701000 0.573100 -0.424400
vn -0.548100 0.347200 -0.760900
vn -0.514700 0.281800 -0.809700
vn 0.471400 -0.676700 0.565400
vn 0.993700 0.011600 0.111100
vn 0.820600 0.442800 -0.361300
vn 0.871500 0.168200 -0.460600
vn 0.445900 0.227900 0.865600
vn 0.225100 -0.318600 0.920800
usemtl pants.png
s 1
f 1/1/1 2/2/2 3/3/3
f 4/4/4 5/5/5 6/6/6
f 7/7/7 8/8/8 9/9/9
f 7/7/7 10/10/10 8/8/8
f 11/11/11 10/10/10 7/7/7
f 11/11/11 12/12/12 10/10/10
f 13/13/13 12/12/12 11/11/11
f 13/13/13 14/14/14 12/12/12
f 15/15/15 16/16/16 17/17/17
f 20/18/18 21/19/19 19/20/20
f 22/21/21 21/19/19 20/18/18
f 22/21/21 23/22/22 21/19/19
f 24/23/23 23/22/22 22/21/21
f 24/23/23 25/24/24 23/22/22
f 1/1/1 25/24/24 24/23/23
f 1/1/1 26/25/25 25/24/24
f 23/22/22 25/24/24 21/19/19
f 25/24/24 27/26/26 21/19/19
f 26/25/25 27/26/26 25/24/24
f 26/25/25 3/3/3 27/26/26
f 1/1/1 3/3/3 26/25/25
f 1/1/1 28/27/27 2/2/2
f 1/1/1 29/28/28 28/27/27
f 24/23/23 29/28/28 1/1/1
f 24/23/23 18/29/29 29/28/28
f 3/3/3 2/2/2 30/30/30
f 3/3/3 31/31/31 27/26/26
f 3/3/3 32/32/32 31/31/31
f 30/30/30 32/32/32 3/3/3
f 30/30/30 33/33/33 32/32/32
f 6/6/6 34/34/34 35/35/35
f 6/6/6 36/36/36 34/34/34
f 6/6/6 5/5/5 36/36/36
f 5/5/5 18/37/29 36/36/36
f 5/5/5 29/38/28 18/37/29
f 5/5/5 28/39/27 29/38/28
f 4/4/4 28/39/27 5/5/5
f 4/4/4 2/40/2 28/39/27
f 37/41/37 2/40/2 4/4/4
f 37/41/37 30/42/30 2/40/2
f 9/9/9 30/42/30 37/41/37
f 9/9/9 33/43/33 30/42/30
f 9/9/9 8/8/8 33/43/33
f 13/13/13 38/44/38 14/14/14
f 13/13/13 39/45/39 38/44/38
f 11/11/11 39/45/39 13/13/13
f 11/11/11 40/46/40 39/45/39
f 7/7/7 40/46/40 11/11/11
f 7/7/7 16/16/16 40/46/40
f 9/9/9 16/16/16 7/7/7
f 37/41/37 16/16/16 9/9/9
f 4/4/4 16/16/16 37/41/37
f 4/4/4 17/17/17 16/16/16
f 6/6/6 17/17/17 4/4/4
f 6/6/6 41/47/41 17/17/17
f 35/35/35 41/47/41 6/6/6
f 35/35/35 19/20/20 41/47/41
f 15/15/15 17/17/17 41/47/41
f 15/15/15 40/46/40 16/16/16
f 15/15/15 39/45/39 40/46/40
f 41/47/41 39/45/39 15/15/15
f 19/20/20 39/45/39 41/47/41
f 19/20/20 42/48/42 39/45/39
f 21/19/19 42/48/42 19/20/20
f 21/19/19 43/49/43 42/48/42
f 27/26/26 43/49/43 21/19/19
f 31/31/31 43/49/43 27/26/26
f 38/44/38 43/49/43 31/31/31
f 38/44/38 42/48/42 43/49/43
f 39/45/39 42/48/42 38/44/38
