# Blender v2.75 (sub 0) OBJ File: ''
# www.blender.org
mtllib GokuLLFoot.mtl
o Mesh.103_DrawCall_144
v 0.481624 0.068556 -0.085915
v 0.326452 0.228775 0.232897
v 0.615196 -0.082058 0.394810
v -0.491233 0.074711 -0.273890
v -0.409377 0.059205 0.121075
v -0.421238 0.227756 -0.071067
v -0.471879 -0.357732 -0.254054
v -0.376226 -0.372490 0.176429
v 0.027837 0.092023 -0.705239
v -0.345250 0.272279 -0.515938
v 0.069856 0.296473 -0.600216
v -0.402280 0.088176 -0.624426
v 0.051062 -0.341927 -0.676862
v -0.395321 -0.345939 -0.592515
v -0.079843 0.099817 0.562748
v 0.376877 0.107526 0.449809
v -0.172337 0.199709 0.334169
v -0.258265 -0.092525 0.635081
v 0.159706 -0.218594 1.098794
v 0.457231 -0.215576 1.031786
v 0.389695 0.275325 -0.239012
v 0.343249 0.083235 -0.461052
v 0.321266 -0.349674 -0.430639
v 0.464564 -0.363677 -0.018639
v 0.641700 -0.378037 0.406147
v 0.619750 -0.385536 0.619511
v 0.468161 -0.401845 1.078353
v 0.174691 -0.404844 1.144021
v -0.149930 -0.394152 0.814573
v -0.282077 -0.389117 0.660354
v -0.284450 0.418839 -0.541573
v -0.420318 0.332031 -0.099254
v 0.278772 0.336026 0.260050
v -0.178368 0.283333 0.323249
v 0.349190 0.420069 -0.201694
v 0.046733 0.456469 -0.584114
vt 0.452910 0.288940
vt 0.367190 0.335940
vt 0.414180 0.199340
vt 0.584630 0.194270
vt 0.495270 0.333740
vt 0.584380 0.007050
vt 0.514890 0.194270
vt 0.515200 0.007050
vt 0.859380 0.195310
vt 0.640630 0.335940
vt 0.855710 0.333740
vt 0.640630 0.195310
vt 0.859380 0.007810
vt 0.640630 0.007810
vt 0.132810 0.195310
vt 0.351560 0.195310
vt 0.125000 0.335940
vt 0.050290 0.289220
vt 0.009250 0.333740
vt 0.085940 0.195310
vt 0.171880 0.101560
vt 0.320310 0.101560
vt 0.584630 0.192990
vt 0.415250 0.007050
vt 0.414180 0.140260
vt 0.353730 0.007050
vt 0.320310 0.007810
vt 0.171880 0.007810
vt 0.146180 0.007050
vt 0.088810 0.140260
vt 0.092380 0.007050
vt 0.011320 0.148800
vt 0.015500 0.007050
vt 0.914060 0.195310
vt 0.914060 0.007810
vt 0.987460 0.333740
vt 0.338710 0.654880
vt 0.210390 0.994050
vt 0.210240 0.655700
vt 0.338900 0.993230
vt 0.408810 0.654420
vt 0.409000 0.992770
vt 0.572360 0.653350
vt 0.572510 0.991700
vt 0.700840 0.652530
vt 0.701020 0.990880
vt 0.817660 0.651760
vt 0.817840 0.990110
vt 0.445620 0.427370
vt 0.484070 0.427370
vt 0.484070 0.349730
vt 0.445310 0.298650
vt 0.484380 0.298650
vt 0.445620 0.349730
vt 0.445310 0.490970
vt 0.484380 0.490970
vn 0.954400 0.244100 -0.171600
vn 0.665900 0.610900 0.428200
vn 0.906800 0.415500 0.070300
vn -0.980700 0.190700 -0.042000
vn -0.910600 0.246400 0.331700
vn -0.946700 0.238300 0.216400
vn -0.733600 -0.679200 -0.019300
vn -0.673700 -0.730100 0.114300
vn 0.196100 0.182400 -0.963400
vn -0.704500 0.429900 -0.564600
vn 0.337700 0.318900 -0.885600
vn -0.651200 0.230700 -0.722900
vn 0.225600 -0.623200 -0.748800
vn -0.543700 -0.618600 -0.567100
vn -0.224500 0.824400 0.519500
vn 0.392200 0.833400 0.389400
vn -0.467600 0.558900 0.684800
vn -0.758800 0.386700 0.524100
vn -0.233200 0.511000 0.827300
vn 0.579400 0.517700 0.629500
vn 0.898400 0.345700 -0.270900
vn 0.791100 0.142300 -0.594800
vn 0.604600 -0.670900 -0.429400
vn 0.618600 -0.739100 -0.266400
vn 0.767600 -0.633600 -0.096300
vn 0.772700 -0.608700 0.179700
vn 0.562300 -0.532400 0.632700
vn -0.205700 -0.547000 0.811500
vn -0.562400 -0.658800 0.499600
vn -0.692700 -0.629900 0.351100
vn -0.503100 0.027600 -0.863800
vn 0.326100 0.115900 -0.938200
vn 0.920800 0.309700 -0.236800
vn -0.999900 0.004600 0.012200
vn -0.453600 0.058400 0.889200
vn 0.601900 0.066100 0.795800
usemtl shoe.png
s 1
f 1/1/1 2/2/2 3/3/3
f 4/4/4 5/1/5 6/5/6
f 7/6/7 5/7/5 4/4/4
f 7/6/7 8/8/8 5/7/5
f 9/9/9 10/10/10 11/11/11
f 9/9/9 12/12/12 10/10/10
f 13/13/13 12/12/12 9/9/9
f 13/13/13 14/14/14 12/12/12
f 2/2/2 15/15/15 16/16/16
f 2/2/2 17/17/17 15/15/15
f 5/18/5 17/17/17 6/19/6
f 18/20/18 17/17/17 5/18/5
f 18/20/18 15/15/15 17/17/17
f 19/21/19 15/15/15 18/20/18
f 19/21/19 16/16/16 15/15/15
f 20/22/20 16/16/16 19/21/19
f 3/3/3 16/16/16 20/22/20
f 3/3/3 2/2/2 16/16/16
f 1/1/1 21/5/21 2/2/2
f 22/23/22 21/5/21 1/1/1
f 11/10/11 22/4/22 9/12/9
f 11/10/11 21/5/21 22/4/22
f 9/12/9 23/6/23 13/14/13
f 22/4/22 23/6/23 9/12/9
f 22/4/22 24/8/24 23/6/23
f 1/7/1 24/8/24 22/4/22
f 1/7/1 25/24/25 24/8/24
f 3/25/3 25/24/25 1/7/1
f 3/25/3 26/26/26 25/24/25
f 3/25/3 27/27/27 26/26/26
f 20/22/20 27/27/27 3/25/3
f 20/22/20 28/28/28 27/27/27
f 19/21/19 28/28/28 20/22/20
f 19/21/19 29/29/29 28/28/28
f 18/30/18 29/29/29 19/21/19
f 18/30/18 30/31/30 29/29/29
f 5/32/5 30/31/30 18/30/18
f 5/32/5 8/33/8 30/31/30
f 4/34/4 14/13/14 7/35/7
f 4/34/4 12/9/12 14/13/14
f 4/34/4 10/11/10 12/9/12
f 6/36/6 10/11/10 4/34/4
usemtl sole.png
f 29/37/29 27/38/27 28/39/28
f 29/37/29 26/40/26 27/38/27
f 30/41/30 26/40/26 29/37/29
f 30/41/30 25/42/25 26/40/26
f 8/43/8 25/42/25 30/41/30
f 8/43/8 24/44/24 25/42/25
f 7/45/7 24/44/24 8/43/8
f 7/45/7 23/46/23 24/44/24
f 14/47/14 23/46/23 7/45/7
f 14/47/14 13/48/13 23/46/23
usemtl blue.png
f 10/49/10 31/50/31 36/51/32
f 21/52/21 35/53/33 2/54/2
f 11/54/11 35/53/33 21/52/21
f 11/54/11 36/51/32 35/53/33
f 10/49/10 36/51/32 11/54/11
f 6/55/6 31/50/31 10/49/10
f 6/55/6 32/56/34 31/50/31
f 17/49/17 32/56/34 6/55/6
f 17/49/17 34/50/35 32/56/34
f 2/54/2 34/50/35 17/49/17
f 2/54/2 33/51/36 34/50/35
f 35/53/33 33/51/36 2/54/2
