# Blender v2.75 (sub 0) OBJ File: ''
# www.blender.org
mtllib GokuRHFoot.mtl
o Mesh.103_DrawCall_144
v 0.987179 11.200290 0.237008
v -0.469065 0.501451 -0.218564
v -0.453052 -0.110250 -0.302864
v -0.336970 0.345683 0.366331
v 0.466039 -0.244422 -0.148700
v 0.298217 -0.103132 -0.658399
v 0.583313 0.349060 -0.047134
v 0.148688 -0.373605 0.245017
v 0.380838 -0.316607 -0.155141
v 0.315327 0.251414 0.471820
v -0.339408 -0.251890 0.231776
v 0.229949 -0.336192 0.332182
v -0.149571 -0.038970 -0.728528
v -0.125528 0.584189 -0.708854
v 0.387450 0.505618 -0.607615
v 0.234149 -0.223624 -0.609889
v -0.098537 -0.187457 -0.682903
v -0.392235 -0.231909 -0.328384
v -0.310635 -0.322859 0.139757
v 1.166128 7.686167 0.679264
vt 0.495970 0.989230
vt 0.500000 0.429690
vt 0.414060 0.992190
vt 0.987460 0.424680
vt 0.875000 0.429690
vt 0.984130 0.989230
vt 0.125000 0.375000
vt 0.009250 0.373470
vt 0.007810 0.429690
vt 0.078130 0.992190
vt 0.390630 0.429690
vt 0.101560 0.429690
vt 0.632810 0.429690
vt 0.601560 0.992190
vt 0.898440 0.992190
vt 0.987460 0.373470
vt 0.843750 0.375000
vt 0.656250 0.375000
vt 0.495270 0.373470
vt 0.359380 0.375000
vt 0.013520 0.989230
vn -0.976000 0.002200 -0.217400
vn -0.954300 -0.186400 -0.233300
vn -0.720100 -0.153200 0.676700
vn 0.870900 -0.489900 -0.038500
vn 0.589200 -0.266500 -0.762800
vn 0.982500 -0.186000 0.011200
vn 0.063700 -0.928700 0.365200
vn 0.658700 -0.750800 -0.049200
vn 0.444800 -0.271900 0.853300
vn -0.666900 -0.436400 0.604000
vn 0.360400 -0.642600 0.676100
vn -0.404800 -0.147600 -0.902400
vn -0.374400 0.054000 -0.925700
vn 0.629400 -0.027500 -0.776500
vn 0.502300 -0.539200 -0.675900
vn -0.285100 -0.375300 -0.882000
vn -0.868500 -0.362700 -0.337900
vn -0.668000 -0.675500 0.312100
usemtl shoe.png
s 1
f 2/1/1 3/2/2 4/3/3
f 5/4/4 6/5/5 7/6/6
f 8/7/7 9/8/8 5/9/4
f 10/10/9 11/11/10 12/12/11
f 4/3/3 11/11/10 10/10/9
f 4/3/3 3/2/2 11/11/10
f 2/1/1 13/13/12 3/2/2
f 14/14/13 13/13/12 2/1/1
f 14/14/13 6/5/5 13/13/12
f 15/15/14 6/5/5 14/14/13
f 7/6/6 6/5/5 15/15/14
f 9/16/8 6/5/5 5/4/4
f 16/17/15 6/5/5 9/16/8
f 17/18/16 6/5/5 16/17/15
f 17/18/16 13/13/12 6/5/5
f 17/18/16 3/2/2 13/13/12
f 18/19/17 3/2/2 17/18/16
f 18/19/17 11/11/10 3/2/2
f 19/20/18 11/11/10 18/19/17
f 8/7/7 11/11/10 19/20/18
f 8/7/7 12/12/11 11/11/10
f 5/9/4 12/12/11 8/7/7
f 7/21/6 12/12/11 5/9/4
f 7/21/6 10/10/9 12/12/11
