# Blender v2.75 (sub 0) OBJ File: ''
# www.blender.org
mtllib GokuChest.mtl
o Mesh.103_DrawCall_144.001
v -0.390862 0.365505 0.813156
v 0.042590 -0.063112 1.045827
v -0.704897 0.671417 0.438739
v -0.758119 0.824334 0.052975
v -0.720556 0.820498 -0.298752
v 0.819065 0.825509 0.126404
v 0.773117 0.821504 -0.229222
v 0.774824 0.672668 0.507622
v 0.470284 0.366297 0.852567
v 0.915416 -0.971554 0.205874
v 0.918518 -0.953547 0.463196
v 0.911558 -0.990845 -0.069850
v 0.525232 -0.924762 0.861470
v 0.234133 -0.918892 0.935849
v 0.041125 -0.917183 0.953919
v -0.152554 -0.919235 0.918289
v -0.445963 -0.925625 0.817367
v -0.829333 -0.955098 0.383824
v -0.853672 -0.973126 0.125537
v -0.836266 -0.992399 -0.149221
v -0.443311 -1.015887 -0.471829
v 0.022057 -1.019784 -0.512276
v 0.489049 -1.015059 -0.429489
v -0.417333 -0.716208 -0.902189
v 0.017404 -0.639812 -0.880027
v 0.019305 -0.780299 -0.730061
v -0.357367 -0.116644 -0.969952
v 0.016814 -0.080335 -0.938682
v 0.548985 -0.953520 -0.772531
v 1.156234 0.946991 -0.222335
v 0.943358 0.944489 -0.209376
v 0.942438 0.862179 0.091542
v -0.890387 0.943307 -0.294687
v -0.750450 1.013391 -0.308628
v -0.644985 0.929316 -0.723875
v -0.882432 0.860847 0.006574
v -0.777368 0.866180 0.040405
v -0.857564 0.622718 0.405549
v -0.400940 -0.544717 1.197795
v 0.045659 -0.610898 1.295659
v -0.386167 -0.434996 1.013619
v 1.580653 0.671351 0.113319
v 0.483461 0.473144 -0.211645
v 1.641056 0.820537 -0.246395
v 0.015426 0.856591 -1.060997
v 0.016404 0.644229 -0.988319
v 0.503338 0.845127 -0.963381
v -0.393979 0.696959 -0.947645
v -0.469095 0.844511 -1.008084
v 0.987901 -0.405956 -0.351316
v 1.005534 -0.407806 0.008357
v 1.044723 -0.570264 0.134843
v 0.895321 -0.511613 -0.424069
v 0.947447 -0.191549 -0.767311
v 0.896088 -0.672791 -0.584433
v 1.183936 -0.718918 0.157311
v 0.915885 -0.651077 -0.393841
v -0.966819 -0.842849 -0.456303
v -0.869518 -0.652663 -0.474918
v -0.490568 -0.776577 -0.728981
v -0.405520 0.265356 -1.084642
v 0.015489 0.304550 -1.050705
v 0.437392 0.265841 -1.045816
v 0.620460 0.478213 -0.958202
v 0.817200 0.646824 -0.837543
v 0.860291 0.181547 -1.016837
v 1.001177 0.594355 -0.845405
v 0.881061 0.215847 -0.941945
v 1.184459 0.147384 -0.919240
v 0.814537 -0.149079 -0.793876
v 0.794522 -0.180248 -0.867198
v 0.452438 -0.715518 -0.862428
v 1.013661 -0.841089 -0.366367
v 0.529807 -0.775669 -0.682644
v 0.391773 -0.116223 -0.935383
v 1.392346 0.433346 -0.881541
v 1.560422 0.724646 -0.714540
v 1.078685 0.847237 -0.669207
v 0.865746 0.850789 -0.659258
v 0.687450 0.929967 -0.661883
v 0.018078 -0.956563 -0.820139
v -0.512219 -0.954463 -0.820721
v -0.758282 -0.181098 -0.939476
v -0.776520 -0.149982 -0.867912
v -0.845978 0.215069 -1.022679
v -0.853915 -0.674067 -0.665177
v -0.849048 -0.512918 -0.504525
v -0.984741 -0.571997 0.042145
v -0.948483 -0.409142 -0.083200
v -0.939325 -0.407089 -0.441578
v -0.910518 -0.193239 -0.853987
v -1.151959 0.144987 -1.027459
v -1.358956 0.430533 -1.008447
v -0.963659 0.593347 -0.937059
v -1.036892 0.846038 -0.767788
v -0.823479 0.849889 -0.737928
v -0.779262 0.646080 -0.911986
v -0.585283 0.477809 -1.014482
v -0.826988 0.180830 -1.095725
v -1.123611 -0.720968 0.052523
v -1.522476 0.721643 -0.856479
v 0.967402 -0.705824 0.709581
v 0.915443 -0.675864 1.025971
v 0.487797 -0.699731 1.046063
v 1.071876 -0.309149 0.685930
v 1.026957 -0.233802 0.518714
v 1.081747 -0.230072 0.291100
v 1.216147 0.059968 0.490541
v 1.035555 0.156845 0.537768
v 1.117064 0.586405 0.434134
v 1.054928 0.177398 0.615163
v 0.811551 0.300373 0.783888
v 0.860952 -0.261992 0.974025
v 0.458719 -0.060964 1.072283
v 0.470836 -0.434235 1.052537
v 0.043068 -0.478024 1.092610
v 0.926844 0.624186 0.488719
v 1.169116 0.839154 0.138671
v 1.444903 0.457050 0.323111
v 0.490343 -0.543925 1.238269
v 0.838064 0.867374 0.115607
v 0.802933 1.014387 -0.236385
v -1.017889 -0.231632 0.192839
v -0.957218 -0.235460 0.427275
v -0.998089 -0.310902 0.590527
v -0.892456 -0.707475 0.625122
v -0.832194 -0.677416 0.946609
v -0.403488 -0.700522 1.005589
v -0.779070 -0.162993 0.870052
v -0.982884 0.175699 0.520528
v -0.965376 0.155203 0.444838
v -1.144287 0.059103 0.381209
v -1.049318 0.584682 0.333114
v -1.377884 0.455490 0.192889
v -1.519600 0.669247 -0.029412
v -1.108257 0.837476 0.032574
v -1.590088 0.817893 -0.395042
v -1.103852 0.945481 -0.327600
v -0.734566 0.299015 0.712711
v -0.373341 -0.061704 1.034498
v -0.431074 0.472331 -0.253175
v 0.653342 0.734568 -0.668374
v 0.428368 0.697689 -0.910301
v -0.611133 0.733979 -0.727273
vt 0.047450 0.232670
vt 0.098630 0.229000
vt 0.009700 0.230830
vt 0.586060 0.163390
vt 0.500000 0.162110
vt 0.501650 0.113100
vt 0.582210 0.271580
vt 0.503910 0.273440
vt 0.418910 0.051330
vt 0.224820 0.004790
vt 0.418910 0.008700
vt 0.786830 0.958280
vt 0.724820 0.958280
vt 0.724820 0.911770
vt 0.278320 0.961730
vt 0.334080 0.961730
vt 0.334080 0.992950
vt 0.278320 0.914860
vt 0.334080 0.914860
vt 0.278320 0.856290
vt 0.425780 0.566410
vt 0.505310 0.551670
vt 0.425660 0.625890
vt 0.509580 0.947570
vt 0.402340 0.992190
vt 0.402340 0.941410
vt 0.441410 0.992190
vt 0.441410 0.941410
vt 0.068790 0.220950
vt 0.007780 0.202450
vt 0.007780 0.109440
vt 0.127930 0.206330
vt 0.104680 0.276090
vt 0.220950 0.159820
vt 0.007780 0.047420
vt 0.224820 0.109440
vt 0.007780 0.004790
vt 0.774350 0.047330
vt 0.774350 0.109220
vt 0.989230 0.004790
vt 0.774350 0.004790
vt 0.582210 0.113100
vt 0.582210 0.353000
vt 0.503910 0.355470
vt 0.582210 0.461150
vt 0.503910 0.460940
vt 0.418910 0.353730
vt 0.418910 0.462160
vt 0.316410 0.392580
vt 0.279080 0.427370
vt 0.259700 0.349820
vt 0.217070 0.423460
vt 0.217070 0.349820
vt 0.104680 0.349820
vt 0.217070 0.276090
vt 0.259700 0.268280
vt 0.415040 0.163730
vt 0.224820 0.047420
vt 0.418910 0.113340
vt 0.418910 0.272190
vt 0.104680 0.423460
vt 0.104680 0.493130
vt 0.217070 0.493130
vt 0.279080 0.493130
vt 0.317840 0.493130
vt 0.582210 0.008700
vt 0.501650 0.051240
vt 0.501650 0.008700
vt 0.582210 0.051240
vt 0.500310 0.051330
vt 0.500310 0.008700
vt 0.500310 0.113340
vt 0.739840 0.267700
vt 0.782040 0.275510
vt 0.782040 0.349090
vt 0.778200 0.159480
vt 0.870300 0.205900
vt 0.989230 0.109220
vt 0.989230 0.202030
vt 0.928830 0.220490
vt 0.893310 0.275510
vt 0.893310 0.349090
vt 0.893310 0.422580
vt 0.782040 0.422580
vt 0.782040 0.492070
vt 0.720640 0.492070
vt 0.720640 0.426480
vt 0.682280 0.492070
vt 0.671880 0.400390
vt 0.739840 0.349090
vt 0.989230 0.047330
vt 0.893310 0.492070
vt 0.786830 0.504820
vt 0.786830 0.547450
vt 0.628230 0.504820
vt 0.992250 0.547450
vt 0.992250 0.504820
vt 0.562100 0.504820
vt 0.675570 0.547450
vt 0.596980 0.547450
vt 0.786830 0.690860
vt 0.992250 0.609470
vt 0.875000 0.703130
vt 0.992250 0.702480
vt 0.928410 0.725710
vt 0.914060 0.785160
vt 0.843750 0.765630
vt 0.786830 0.853640
vt 0.786830 0.768370
vt 0.686130 0.768370
vt 0.686130 0.690860
vt 0.604680 0.690860
vt 0.581420 0.624970
vt 0.503910 0.613340
vt 0.503910 0.690860
vt 0.603420 0.769530
vt 0.656490 0.853060
vt 0.724820 0.853640
vt 0.786830 0.911770
vt 0.899230 0.911770
vt 0.899230 0.958280
vt 0.786830 0.989290
vt 0.899230 0.989290
vt 0.899990 0.853060
vt 0.582030 0.570310
vt 0.503910 0.551330
vt 0.503910 0.504820
vt 0.670560 0.911770
vt 0.724820 0.989290
vt 0.670560 0.958280
vt 0.670560 0.989290
vt 0.003570 0.504820
vt 0.214630 0.504820
vt 0.003570 0.547790
vt 0.003570 0.610260
vt 0.069150 0.727390
vt 0.003570 0.703980
vt 0.124050 0.704650
vt 0.214630 0.692260
vt 0.214630 0.547790
vt 0.377900 0.504820
vt 0.329280 0.547790
vt 0.445530 0.504820
vt 0.409670 0.547790
vt 0.317990 0.692260
vt 0.214630 0.770360
vt 0.156160 0.767610
vt 0.084350 0.779510
vt 0.214630 0.856290
vt 0.098360 0.855680
vt 0.099150 0.914860
vt 0.214630 0.914860
vt 0.099150 0.961730
vt 0.214630 0.961730
vt 0.099150 0.992950
vt 0.214630 0.992950
vt 0.278320 0.992950
vt 0.348540 0.855680
vt 0.317990 0.770360
vt 0.406070 0.771550
vt 0.401760 0.692260
vt 0.505310 0.692260
vt 0.505310 0.614170
vt 0.505310 0.504820
vt 0.562500 0.992190
vt 0.562500 0.976560
vt 0.607420 0.992190
vt 0.519530 0.992190
vt 0.519530 0.941410
vt 0.476560 0.992190
vt 0.476560 0.941410
vn 0.412300 -0.911000 -0.008100
vn 0.710300 -0.617800 0.337200
vn 0.722200 -0.680300 -0.125200
vn -0.179400 -0.556100 -0.811500
vn 0.074900 -0.436500 -0.896600
vn 0.086100 -0.194300 -0.977100
vn 0.011800 -0.252000 -0.967600
vn 0.046400 -0.199000 -0.978900
vn 0.477500 -0.367900 -0.797900
vn 0.114400 -0.980300 -0.160800
vn 0.146300 0.988700 0.032800
vn 0.199300 0.978500 0.051900
vn 0.076300 0.925700 0.370400
vn -0.222100 0.974400 0.035100
vn 0.366900 0.925700 0.091400
vn 0.376000 0.914700 -0.148200
vn -0.154500 0.891800 0.425300
vn 0.418500 0.832500 0.363000
vn -0.406000 0.634500 0.657600
vn -0.433900 0.079700 0.897400
vn -0.029500 0.016200 0.999400
vn 0.013600 0.531100 0.847200
vn 0.969500 -0.045700 0.240800
vn 0.917800 -0.393700 -0.050100
vn 0.985800 0.167700 0.006400
vn -0.048900 0.966700 -0.251000
vn -0.029000 0.335000 0.941700
vn -0.118000 0.882800 -0.454600
vn 0.414700 0.435900 0.798700
vn 0.149800 0.827000 -0.541800
vn 0.986400 -0.049500 -0.156400
vn 0.953800 0.266400 -0.139000
vn 0.878600 0.422300 -0.222600
vn 0.952500 -0.119700 -0.280100
vn 0.707200 -0.504400 -0.495300
vn 0.708900 -0.647300 -0.279900
vn 0.975100 -0.136500 -0.174600
vn 0.387700 -0.874900 -0.290200
vn -0.888300 -0.301100 -0.346700
vn -0.384000 -0.875300 -0.294000
vn -0.746500 -0.664600 -0.031000
vn -0.624300 -0.767600 -0.145000
vn -0.343500 -0.554500 -0.757900
vn 0.032400 -0.040500 -0.998600
vn 0.021000 -0.119400 -0.992600
vn 0.089800 -0.080400 -0.992700
vn 0.287800 0.216800 -0.932800
vn 0.287800 0.418700 -0.861300
vn 0.580800 -0.144700 -0.801000
vn 0.098500 0.404200 -0.909300
vn 0.724300 -0.239500 -0.646500
vn 0.757100 -0.472600 -0.451000
vn 0.691600 -0.378600 -0.615100
vn 0.660200 -0.240400 -0.711500
vn 0.119500 -0.647900 -0.752300
vn 0.897100 -0.284300 -0.338100
vn 0.368100 -0.529300 -0.764400
vn 0.056400 -0.202300 -0.977700
vn 0.802500 -0.345300 -0.486600
vn 0.914000 0.106500 -0.391500
vn 0.085600 0.839200 -0.537000
vn 0.243500 0.831100 -0.500000
vn -0.425200 0.902200 -0.072200
vn -0.099600 -0.982300 -0.158400
vn 0.039400 -0.431700 -0.901200
vn 0.011100 -0.979500 -0.201300
vn -0.455400 -0.357300 -0.815400
vn -0.565300 -0.371700 -0.736300
vn -0.669900 -0.380200 -0.637700
vn -0.682300 -0.260400 -0.683000
vn -0.688800 -0.634400 -0.350700
vn -0.968000 -0.114200 -0.223300
vn -0.888600 0.392000 -0.237900
vn -0.953400 0.180400 -0.241700
vn -0.988400 -0.139300 -0.059900
vn -0.681000 -0.545400 -0.488700
vn -0.705300 -0.536100 -0.463700
vn -0.812700 -0.273600 -0.514400
vn -0.018500 0.445600 -0.895000
vn -0.034100 0.826300 -0.562100
vn -0.141900 0.818700 -0.556400
vn -0.219300 0.476700 -0.851200
vn -0.207100 0.222200 -0.952700
vn -0.563700 -0.135900 -0.814700
vn -0.975700 -0.140800 -0.167700
vn -0.886300 0.112400 -0.449100
vn 0.796200 -0.501600 0.338300
vn 0.293700 -0.752000 0.590100
vn 0.115000 -0.657400 0.744700
vn 0.555800 -0.148500 0.817900
vn 0.355000 -0.539100 0.763700
vn 0.953000 0.029700 0.301400
vn 0.996200 -0.086600 0.005800
vn 0.948300 -0.253700 -0.190600
vn 0.899300 -0.216900 0.379600
vn 0.897200 -0.024000 0.441000
vn 0.437800 0.499100 0.747800
vn 0.939600 0.088000 0.330600
vn 0.430800 0.424400 0.796400
vn 0.606500 -0.045400 0.793800
vn 0.134400 0.237800 0.961900
vn -0.022600 0.511200 0.859100
vn -0.043400 0.533500 0.844700
vn -0.044300 0.236300 0.970600
vn 0.192900 0.494900 0.847300
vn 0.265700 0.706200 0.656300
vn 0.292200 0.684800 0.667600
vn 0.230800 0.853000 0.468100
vn 0.932500 -0.235900 0.273400
vn 0.358700 0.059100 0.931600
vn 0.003000 -0.722100 0.691700
vn -0.387600 0.843800 0.371100
vn -0.359400 0.926700 0.109800
vn -0.702700 -0.619700 0.349400
vn -0.991800 0.020100 -0.125900
vn -0.998800 0.040600 -0.025700
vn -0.966600 0.057600 0.249700
vn -0.799400 -0.494000 0.341900
vn -0.337500 -0.741100 0.580300
vn -0.608100 -0.357400 0.708800
vn -0.210100 -0.688200 0.694400
vn -0.384700 -0.521200 0.761800
vn -0.589600 0.189000 0.785200
vn -0.938700 0.115700 0.324800
vn -0.921800 -0.120300 0.368300
vn -0.786200 -0.466600 0.405200
vn -0.411500 0.502100 0.760600
vn -0.904800 -0.348000 0.245500
vn -0.971500 -0.110500 0.209400
vn -0.200600 0.845600 0.494600
vn -0.987600 0.153600 -0.031300
vn -0.129800 0.991100 0.028100
vn -0.330800 0.690200 0.643600
vn -0.497400 0.425500 0.756000
vn -0.265900 0.481600 0.835100
vn -0.220200 0.225100 0.949100
vn -0.914200 -0.395000 -0.090400
vn -0.907100 0.400500 0.129200
vn -0.970900 0.157200 0.180400
vn -0.891500 0.213600 0.399400
vn -0.415800 0.487800 0.767500
vn 0.851300 0.138300 0.506000
vn 0.969000 0.171200 0.177900
vn 0.899400 0.432500 0.062600
usemtl blue.png.001
s 1
f 10/1/1 11/2/2 12/3/3
usemtl shirt.png.001
f 24/4/4 25/5/5 26/6/6
f 27/7/7 25/5/5 24/4/4
f 27/7/7 28/8/8 25/5/5
f 29/9/9 12/10/3 23/11/10
f 30/12/11 31/13/12 32/14/13
f 33/15/14 34/16/15 35/17/16
f 36/18/17 34/16/15 33/15/14
f 36/18/17 37/19/18 34/16/15
f 38/20/19 37/19/18 36/18/17
f 39/21/20 40/22/21 41/23/22
f 42/24/23 43/24/24 44/24/25
f 45/25/26 46/26/27 47/27/28
f 45/25/26 48/28/29 46/26/27
f 49/27/30 48/28/29 45/25/26
f 50/29/31 51/30/32 52/31/33
f 50/29/31 53/32/34 54/33/35
f 52/31/33 53/32/34 50/29/31
f 52/31/33 55/34/36 53/32/34
f 56/35/37 55/34/36 52/31/33
f 56/35/37 57/36/38 55/34/36
f 10/37/1 57/36/38 56/35/37
f 58/38/39 59/39/40 24/4/4
f 58/38/39 19/40/41 59/39/40
f 58/38/39 20/41/42 19/40/41
f 58/38/39 60/42/43 20/41/42
f 24/4/4 60/42/43 58/38/39
f 24/4/4 26/6/6 60/42/43
f 61/43/44 28/8/8 27/7/7
f 61/43/44 62/44/45 28/8/8
f 49/45/30 62/44/45 61/43/44
f 45/46/26 62/44/45 49/45/30
f 45/46/26 63/47/46 62/44/45
f 47/48/28 63/47/46 45/46/26
f 47/48/28 64/49/47 63/47/46
f 65/50/48 64/49/47 47/48/28
f 65/50/48 66/51/49 64/49/47
f 67/52/50 66/51/49 65/50/48
f 67/52/50 68/53/51 66/51/49
f 69/54/52 68/53/51 67/52/50
f 54/33/35 68/53/51 69/54/52
f 54/33/35 70/55/53 68/53/51
f 53/32/34 70/55/53 54/33/35
f 53/32/34 71/56/54 70/55/53
f 55/34/36 71/56/54 53/32/34
f 55/34/36 72/57/55 71/56/54
f 57/36/38 72/57/55 55/34/36
f 57/36/38 73/58/56 72/57/55
f 10/37/1 73/58/56 57/36/38
f 12/10/3 73/58/56 10/37/1
f 74/59/57 73/58/56 12/10/3
f 74/59/57 72/57/55 73/58/56
f 25/5/5 72/57/55 74/59/57
f 28/8/8 72/57/55 25/5/5
f 28/8/8 75/60/58 72/57/55
f 62/44/45 75/60/58 28/8/8
f 63/47/46 75/60/58 62/44/45
f 63/47/46 71/56/54 75/60/58
f 66/51/49 71/56/54 63/47/46
f 66/51/49 70/55/53 71/56/54
f 68/53/51 70/55/53 66/51/49
f 64/49/47 66/51/49 63/47/46
f 75/60/58 71/56/54 72/57/55
f 67/52/50 76/61/59 69/54/52
f 67/52/50 77/62/60 76/61/59
f 67/52/50 78/63/61 77/62/60
f 65/50/48 78/63/61 67/52/50
f 65/50/48 79/64/62 78/63/61
f 47/48/28 79/64/62 65/50/48
f 47/48/28 80/65/63 79/64/62
f 21/66/64 81/67/65 22/68/66
f 21/66/64 82/69/67 81/67/65
f 20/41/42 82/69/67 21/66/64
f 60/42/43 82/69/67 20/41/42
f 60/42/43 81/67/65 82/69/67
f 26/6/6 81/67/65 60/42/43
f 81/70/65 23/11/10 22/71/66
f 29/9/9 23/11/10 81/70/65
f 29/9/9 74/59/57 12/10/3
f 26/72/6 74/59/57 29/9/9
f 26/72/6 25/5/5 74/59/57
f 29/9/9 81/70/65 26/72/6
f 83/73/68 84/74/69 85/75/70
f 86/76/71 84/74/69 83/73/68
f 86/76/71 87/77/72 84/74/69
f 88/78/73 87/77/72 86/76/71
f 89/79/74 87/77/72 88/78/73
f 90/80/75 87/77/72 89/79/74
f 91/81/76 87/77/72 90/80/75
f 91/81/76 84/74/69 87/77/72
f 92/82/77 84/74/69 91/81/76
f 92/82/77 85/75/70 84/74/69
f 93/83/78 85/75/70 92/82/77
f 93/83/78 94/84/79 85/75/70
f 95/85/80 94/84/79 93/83/78
f 96/86/81 94/84/79 95/85/80
f 96/86/81 97/87/82 94/84/79
f 35/88/16 97/87/82 96/86/81
f 49/45/30 97/87/82 35/88/16
f 49/45/30 98/89/83 97/87/82
f 61/43/44 98/89/83 49/45/30
f 61/43/44 99/90/84 98/89/83
f 27/7/7 99/90/84 61/43/44
f 27/7/7 83/73/68 99/90/84
f 27/7/7 86/76/71 83/73/68
f 24/4/4 86/76/71 27/7/7
f 59/39/40 86/76/71 24/4/4
f 59/39/40 100/91/85 86/76/71
f 19/40/41 100/91/85 59/39/40
f 86/76/71 100/91/85 88/78/73
f 99/90/84 97/87/82 98/89/83
f 99/90/84 94/84/79 97/87/82
f 99/90/84 85/75/70 94/84/79
f 83/73/68 85/75/70 99/90/84
f 93/83/78 101/92/86 95/85/80
f 11/93/2 102/94/87 13/95/88
f 11/93/2 56/96/37 102/94/87
f 10/97/1 56/96/37 11/93/2
f 14/98/89 103/99/90 104/100/91
f 13/95/88 103/99/90 14/98/89
f 102/94/87 103/99/90 13/95/88
f 102/94/87 105/101/92 103/99/90
f 56/96/37 105/101/92 102/94/87
f 52/102/33 105/101/92 56/96/37
f 52/102/33 106/103/93 105/101/92
f 51/104/32 106/103/93 52/102/33
f 107/105/94 106/103/93 51/104/32
f 108/106/95 106/103/93 107/105/94
f 108/106/95 109/107/96 106/103/93
f 110/108/97 109/107/96 108/106/95
f 110/108/97 111/109/98 109/107/96
f 112/110/99 111/109/98 110/108/97
f 112/110/99 113/111/100 111/109/98
f 114/112/101 113/111/100 112/110/99
f 114/112/101 115/113/102 113/111/100
f 114/112/101 116/114/103 115/113/102
f 114/112/101 2/115/104 116/114/103
f 114/112/101 9/116/105 2/115/104
f 112/110/99 9/116/105 114/112/101
f 112/110/99 8/117/106 9/116/105
f 117/118/107 8/117/106 112/110/99
f 117/118/107 32/14/13 8/117/106
f 118/119/108 32/14/13 117/118/107
f 118/119/108 30/12/11 32/14/13
f 42/120/23 30/12/11 118/119/108
f 44/121/25 30/12/11 42/120/23
f 44/121/25 78/122/61 30/12/11
f 77/123/60 78/122/61 44/121/25
f 103/99/90 105/101/92 104/100/91
f 110/108/97 117/118/107 112/110/99
f 110/108/97 118/119/108 117/118/107
f 119/124/109 118/119/108 110/108/97
f 119/124/109 42/120/23 118/119/108
f 110/108/97 108/106/95 119/124/109
f 109/107/96 105/101/92 106/103/93
f 111/109/98 105/101/92 109/107/96
f 113/111/100 105/101/92 111/109/98
f 113/111/100 104/100/91 105/101/92
f 113/111/100 120/125/110 104/100/91
f 115/113/102 120/125/110 113/111/100
f 116/114/103 120/125/110 115/113/102
f 40/126/21 120/125/110 116/114/103
f 15/127/111 120/125/110 40/126/21
f 14/98/89 120/125/110 15/127/111
f 14/98/89 104/100/91 120/125/110
f 32/14/13 121/128/112 8/117/106
f 32/14/13 31/13/12 121/128/112
f 78/122/61 31/13/12 30/12/11
f 79/129/62 31/13/12 78/122/61
f 79/129/62 122/130/113 31/13/12
f 80/131/63 122/130/113 79/129/62
f 122/130/113 121/128/112 31/13/12
f 19/132/41 18/133/114 100/134/85
f 88/135/73 123/136/115 89/137/74
f 88/135/73 124/138/116 123/136/115
f 88/135/73 125/139/117 124/138/116
f 100/134/85 125/139/117 88/135/73
f 100/134/85 126/140/118 125/139/117
f 18/133/114 126/140/118 100/134/85
f 18/133/114 17/141/119 126/140/118
f 126/140/118 127/142/120 125/139/117
f 17/141/119 127/142/120 126/140/118
f 16/143/121 127/142/120 17/141/119
f 128/144/122 127/142/120 16/143/121
f 129/145/123 127/142/120 128/144/122
f 129/145/123 125/139/117 127/142/120
f 130/146/124 125/139/117 129/145/123
f 130/146/124 124/138/116 125/139/117
f 131/147/125 124/138/116 130/146/124
f 131/147/125 123/136/115 124/138/116
f 131/147/125 132/148/126 123/136/115
f 133/149/127 132/148/126 131/147/125
f 133/149/127 134/150/128 132/148/126
f 133/149/127 135/151/129 134/150/128
f 136/152/130 135/151/129 133/149/127
f 136/152/130 137/153/131 135/151/129
f 138/154/132 137/153/131 136/152/130
f 138/154/132 101/155/86 137/153/131
f 138/154/132 95/156/80 101/155/86
f 138/154/132 96/157/81 95/156/80
f 33/15/14 96/157/81 138/154/132
f 33/15/14 35/17/16 96/157/81
f 38/20/19 3/158/133 37/19/18
f 139/159/134 3/158/133 38/20/19
f 139/159/134 1/160/135 3/158/133
f 140/161/136 1/160/135 139/159/134
f 140/161/136 2/162/104 1/160/135
f 140/161/136 116/163/103 2/162/104
f 140/161/136 41/23/22 116/163/103
f 129/145/123 41/23/22 140/161/136
f 129/145/123 39/21/20 41/23/22
f 128/144/122 39/21/20 129/145/123
f 16/143/121 39/21/20 128/144/122
f 16/143/121 40/22/21 39/21/20
f 15/164/111 40/22/21 16/143/121
f 131/147/125 130/146/124 133/149/127
f 136/152/130 33/15/14 138/154/132
f 136/152/130 36/18/17 33/15/14
f 133/149/127 36/18/17 136/152/130
f 133/149/127 38/20/19 36/18/17
f 130/146/124 38/20/19 133/149/127
f 130/146/124 139/159/134 38/20/19
f 129/145/123 139/159/134 130/146/124
f 140/161/136 139/159/134 129/145/123
f 41/23/22 40/22/21 116/163/103
f 107/24/94 43/24/24 108/24/95
f 51/24/32 43/24/24 107/24/94
f 50/24/31 43/24/24 51/24/32
f 54/24/35 43/24/24 50/24/31
f 69/24/52 43/24/24 54/24/35
f 76/24/59 43/24/24 69/24/52
f 77/24/60 43/24/24 76/24/59
f 44/24/25 43/24/24 77/24/60
f 119/24/109 43/24/24 42/24/23
f 119/24/109 108/24/95 43/24/24
f 132/24/126 141/24/137 123/24/115
f 134/24/128 141/24/137 132/24/126
f 135/24/129 141/24/137 134/24/128
f 137/24/131 141/24/137 135/24/129
f 101/24/86 141/24/137 137/24/131
f 93/24/78 141/24/137 101/24/86
f 92/24/77 141/24/137 93/24/78
f 91/24/76 141/24/137 92/24/77
f 90/24/75 141/24/137 91/24/76
f 89/24/74 141/24/137 90/24/75
f 89/24/74 123/24/115 141/24/137
f 121/165/112 6/166/138 8/167/106
f 122/168/113 6/166/138 121/165/112
f 122/168/113 7/169/139 6/166/138
f 80/170/63 7/169/139 122/168/113
f 80/170/63 142/171/140 7/169/139
f 47/27/28 142/171/140 80/170/63
f 47/27/28 143/28/141 142/171/140
f 47/27/28 46/26/27 143/28/141
f 35/170/16 48/28/29 49/27/30
f 35/170/16 144/171/142 48/28/29
f 34/168/15 144/171/142 35/170/16
f 34/168/15 5/169/143 144/171/142
f 37/165/18 5/169/143 34/168/15
f 37/165/18 4/166/144 5/169/143
f 3/167/133 4/166/144 37/165/18
