# Blender v2.75 (sub 0) OBJ File: ''
# www.blender.org
mtllib GokuRightShoulder.mtl
o Mesh.103_DrawCall_144.000_Mesh.103_DrawCall_144.002
v -0.267172 3.592987 -0.547434
v 1.386408 1.084229 -0.753079
v 0.680786 1.467086 -0.453896
v 1.147613 4.587005 -0.045980
v 0.010544 0.327948 -0.731556
v 0.417102 0.408225 -0.650158
v -0.073843 0.394715 -0.413804
v 0.537248 0.587030 -0.326079
v 0.168558 0.449849 -0.055445
v 0.538715 0.502544 -0.009065
v 0.167614 0.554802 -0.371605
v 0.571433 0.477219 -0.724853
v 0.250175 0.457663 -0.768953
v 0.614937 0.258021 -0.897101
v 0.458868 -0.058321 -0.938279
v 0.351611 0.234469 -0.936457
v 0.661723 -0.018799 -0.911363
v -0.035331 -0.005294 0.094359
v -0.298472 -0.061127 -0.231579
v -0.119924 -0.173056 0.042726
v -0.146623 0.219301 -0.132915
v -0.357852 0.006526 -0.534457
v -0.150279 0.336864 -0.444726
v 0.674349 0.526677 -0.298752
v 0.669381 -0.407796 -0.793019
v 0.023903 -0.170382 -1.031012
v 0.346514 -0.273159 -0.997572
v 0.736679 -0.462337 -0.401389
v 0.645201 -0.480076 -0.113444
v 0.476049 -0.442216 0.123129
v 0.209654 -0.334232 0.247136
v -0.192540 -0.051546 -0.927176
v 0.537858 -0.410047 -0.788693
v 0.373406 -0.149143 -0.952037
v 0.233516 0.201319 0.163340
v 0.448415 -0.138184 0.316785
v 0.568842 0.274743 0.191595
v 0.191925 0.095326 -0.986296
v 0.555320 -0.602571 -0.420050
v 0.545595 -0.620484 -0.100751
v 0.505602 -0.441851 0.154287
v 0.003042 0.280721 -0.831196
v 0.783772 0.440159 -0.727273
v 1.172740 1.104067 0.256211
vt 0.476560 0.927730
vt 0.585940 0.976560
vt 0.586820 0.927920
vt 0.009920 0.545960
vt 0.058350 0.504270
vt 0.009920 0.504270
vt 0.058350 0.545960
vt 0.058350 0.459290
vt 0.106750 0.459290
vt 0.159390 0.504270
vt 0.137480 0.459290
vt 0.106750 0.504270
vt 0.170140 0.545960
vt 0.106750 0.545960
vt 0.160160 0.332030
vt 0.160160 0.339840
vt 0.160160 0.335940
vt 0.160160 0.326170
vt 0.156250 0.324220
vt 0.152340 0.326170
vt 0.152340 0.332030
vt 0.152340 0.335940
vt 0.152340 0.339840
vt 0.152340 0.343750
vt 0.160160 0.343750
vt 0.009920 0.392270
vt 0.009920 0.459290
vt 0.106750 0.392270
vt 0.009920 0.334170
vt 0.106750 0.334170
vt 0.106750 0.274350
vt 0.009920 0.274350
vn -0.141700 0.960500 -0.239400
vn -0.105000 0.994200 0.020800
vn -0.390700 0.758800 0.521200
vn -0.189500 0.818700 0.542000
vn -0.340300 0.940200 0.012300
vn 0.015800 0.841000 -0.540700
vn -0.187700 0.813800 -0.549900
vn 0.108800 0.358400 -0.927200
vn 0.216400 -0.109200 -0.970200
vn 0.034700 0.386900 -0.921400
vn 0.158400 -0.111000 -0.981100
vn -0.583500 0.230300 0.778800
vn -0.908400 -0.335800 0.249100
vn -0.740200 -0.477700 0.473200
vn -0.725200 0.503800 0.469200
vn -0.980000 -0.136000 -0.145300
vn -0.711400 0.701100 -0.047900
vn -0.451200 -0.875300 -0.173900
vn -0.364900 -0.468900 -0.804300
vn 0.144300 -0.542300 -0.827600
vn -0.985700 -0.141600 -0.090500
vn -0.916300 -0.234700 -0.324500
vn -0.500000 -0.800200 0.331100
vn -0.384200 -0.612500 0.690800
vn -0.751400 -0.174000 -0.636500
vn 0.284100 -0.320500 -0.903600
vn 0.424100 0.031700 -0.905000
vn -0.337700 0.423800 0.840400
vn -0.199800 -0.009600 0.979800
vn -0.183100 0.513700 0.838200
vn -0.054900 0.287800 -0.956100
vn -0.657600 0.752500 0.037100
vn -0.824200 0.506000 -0.254200
vn -0.591400 -0.572600 0.567700
vn -0.480600 0.619900 -0.620200
usemtl arm.png.002
s 1
f 7/1/1 6/2/1 5/3/1
usemtl blue.png.002
f 8/4/2 9/5/3 10/6/4
f 8/4/2 11/7/5 9/5/3
f 12/4/6 11/7/5 8/4/2
f 12/4/6 13/7/7 11/7/5
f 14/6/8 13/7/7 12/4/6
f 15/8/9 16/5/10 17/6/11
f 18/9/12 19/10/13 20/11/14
f 21/12/15 19/10/13 18/9/12
f 21/12/15 22/13/16 19/10/13
f 23/14/17 22/13/16 21/12/15
f 25/15/18 26/16/19 27/17/20
f 28/18/21 26/16/19 25/15/18
f 29/19/22 26/16/19 28/18/21
f 30/20/23 26/16/19 29/19/22
f 31/21/24 26/16/19 30/20/23
f 20/22/14 26/16/19 31/21/24
f 19/23/13 26/16/19 20/22/14
f 22/24/16 26/16/19 19/23/13
f 22/24/16 32/25/25 26/16/19
f 15/8/9 33/26/26 34/9/27
f 15/8/9 17/27/11 33/26/26
f 23/14/17 11/7/5 13/7/7
f 21/12/15 11/7/5 23/14/17
f 21/12/15 9/5/3 11/7/5
f 18/9/12 9/5/3 21/12/15
f 18/9/12 35/8/28 9/5/3
f 36/26/29 35/8/28 18/9/12
f 37/27/30 35/8/28 36/26/29
f 10/6/4 35/8/28 37/27/30
f 10/6/4 9/5/3 35/8/28
f 14/6/8 16/5/10 13/7/7
f 17/6/11 16/5/10 14/6/8
f 15/8/9 38/12/31 16/5/10
f 34/9/27 38/12/31 15/8/9
f 34/9/27 27/11/20 38/12/31
f 34/9/27 25/28/18 27/11/20
f 39/29/32 28/30/21 25/28/18
f 39/29/32 29/31/22 28/30/21
f 40/32/33 29/31/22 39/29/32
f 40/32/33 30/30/23 29/31/22
f 41/29/34 30/30/23 40/32/33
f 36/26/29 30/30/23 41/29/34
f 36/26/29 31/28/24 30/30/23
f 18/9/12 31/28/24 36/26/29
f 18/9/12 20/11/14 31/28/24
f 23/14/17 32/13/25 22/13/16
f 42/14/35 32/13/25 23/14/17
f 42/14/35 26/10/19 32/13/25
f 38/12/31 26/10/19 42/14/35
f 38/12/31 27/11/20 26/10/19
f 42/14/35 16/5/10 38/12/31
f 42/14/35 13/7/7 16/5/10
f 23/14/17 13/7/7 42/14/35
l 24 43
