# Blender v2.75 (sub 0) OBJ File: ''
# www.blender.org
mtllib GokuVest.mtl
o Mesh.103_DrawCall_144.003
v 1.556443 0.124775 -0.723181
v 1.424559 0.625197 -0.602374
v 1.389840 -0.047681 -0.813843
v 1.066257 0.904084 -0.616501
v 1.247378 0.394149 -0.729152
v 1.303779 0.056125 -0.814598
v -0.390862 0.365733 0.813156
v 0.042590 -0.062884 1.045827
v -0.704897 0.671646 0.438739
v -0.758119 0.824563 0.052975
v -0.720556 0.820726 -0.298752
v 0.819065 0.825737 0.126404
v 0.773117 0.821732 -0.229222
v 0.774824 0.672896 0.507622
v 0.470284 0.366525 0.852567
v 0.915416 -0.971326 0.205874
v 0.918518 -0.953318 0.463196
v 0.911558 -0.990617 -0.069850
v 0.525232 -0.924534 0.861470
v 0.234133 -0.918664 0.935849
v 0.041125 -0.916955 0.953919
v -0.152554 -0.919007 0.918289
v -0.445963 -0.925397 0.817367
v -0.829333 -0.954870 0.383824
v -0.853672 -0.972898 0.125537
v -0.836266 -0.992171 -0.149221
v -0.443311 -1.015659 -0.471829
v 0.022057 -1.019556 -0.512276
v 0.489049 -1.014831 -0.429489
v 1.600876 0.515145 0.008891
v 1.497144 0.289102 0.226296
v 1.258905 -0.043370 0.355962
v 1.581407 0.120576 0.178363
v 1.618012 0.251111 -0.786951
v 1.397347 0.132655 -0.909039
v -0.417333 -0.715979 -0.902189
v 0.017404 -0.639584 -0.880027
v 0.019305 -0.780071 -0.730061
v -0.357367 -0.116416 -0.969952
v 0.016814 -0.080107 -0.938682
v 0.548985 -0.953292 -0.772531
v 1.156234 0.947219 -0.222335
v 0.943358 0.944718 -0.209376
v 0.942438 0.862407 0.091542
v -0.890387 0.943535 -0.294687
v -0.750450 1.013619 -0.308628
v -0.644985 0.929544 -0.723875
v -0.882432 0.861076 0.006574
v -0.777368 0.866409 0.040405
v -0.857564 0.622946 0.405549
v -0.400940 -0.544489 1.197795
v 0.045659 -0.610669 1.295659
v -0.386167 -0.434768 1.013619
v 1.580653 0.671580 0.113319
v 0.483461 0.473372 -0.211645
v 1.641056 0.820765 -0.246395
v 0.015426 0.856820 -1.060997
v 0.016404 0.644457 -0.988319
v 0.503338 0.845356 -0.963381
v -0.393979 0.697188 -0.947645
v -0.469095 0.844739 -1.008084
v 0.987901 -0.405728 -0.351316
v 1.005534 -0.407578 0.008357
v 1.044723 -0.570036 0.134843
v 0.895321 -0.511385 -0.424069
v 0.947447 -0.191321 -0.767311
v 0.896088 -0.672562 -0.584433
v 1.183936 -0.718690 0.157311
v 0.915885 -0.650849 -0.393841
v -0.966819 -0.842621 -0.456303
v -0.869518 -0.652435 -0.474918
v -0.490568 -0.776348 -0.728981
v -0.405520 0.265584 -1.084642
v 0.015489 0.304778 -1.050705
v 0.437392 0.266070 -1.045816
v 0.620460 0.478442 -0.958202
v 0.817200 0.647052 -0.837543
v 0.860291 0.181775 -1.016837
v 1.001177 0.594583 -0.845405
v 0.881061 0.216075 -0.941945
v 1.184459 0.147612 -0.919240
v 0.814537 -0.148851 -0.793876
v 0.794522 -0.180020 -0.867198
v 0.452438 -0.715289 -0.862428
v 1.013661 -0.840861 -0.366367
v 0.529807 -0.775441 -0.682644
v 0.391773 -0.115995 -0.935383
v 1.392346 0.433574 -0.881541
v 1.560422 0.724874 -0.714540
v 1.078685 0.847465 -0.669207
v 0.865746 0.851017 -0.659258
v 0.687450 0.930195 -0.661883
v 0.018078 -0.956334 -0.820139
v -0.512219 -0.954234 -0.820721
v -0.758282 -0.180869 -0.939476
v -0.776520 -0.149754 -0.867912
v -0.845978 0.215297 -1.022679
v -0.853915 -0.673838 -0.665177
v -0.849048 -0.512689 -0.504525
v -0.984741 -0.571769 0.042145
v -0.948483 -0.408914 -0.083200
v -0.939325 -0.406861 -0.441578
v -0.910518 -0.193011 -0.853987
v -1.151959 0.145215 -1.027459
v -1.358956 0.430762 -1.008447
v -0.963659 0.593575 -0.937059
v -1.036892 0.846266 -0.767788
v -0.823479 0.850117 -0.737928
v -0.779262 0.646308 -0.911986
v -0.585283 0.478037 -1.014482
v -0.826988 0.181058 -1.095725
v -1.123611 -0.720740 0.052523
v -1.522476 0.721872 -0.856479
v 0.967402 -0.705596 0.709581
v 0.915443 -0.675636 1.025971
v 0.487797 -0.699503 1.046063
v 1.071876 -0.308921 0.685930
v 1.026957 -0.233574 0.518714
v 1.081747 -0.229844 0.291100
v 1.216147 0.060197 0.490541
v 1.035555 0.157073 0.537768
v 1.117064 0.586633 0.434134
v 1.054928 0.177626 0.615163
v 0.811551 0.300601 0.783888
v 0.860952 -0.261764 0.974025
v 0.458719 -0.060736 1.072283
v 0.470836 -0.434007 1.052537
v 0.043068 -0.477795 1.092610
v 0.926844 0.624414 0.488719
v 1.169116 0.839383 0.138671
v 1.444903 0.457279 0.323111
v 0.490343 -0.543697 1.238269
v 0.838064 0.867603 0.115607
v 0.802933 1.014616 -0.236385
v -1.017889 -0.231404 0.192839
v -0.957218 -0.235232 0.427275
v -0.998089 -0.310674 0.590527
v -0.892456 -0.707247 0.625122
v -0.832194 -0.677188 0.946609
v -0.403488 -0.700294 1.005589
v -0.779070 -0.162765 0.870052
v -0.982884 0.175927 0.520528
v -0.965376 0.155431 0.444838
v -1.144287 0.059332 0.381209
v -1.049318 0.584910 0.333114
v -1.377884 0.455719 0.192889
v -1.519600 0.669475 -0.029412
v -1.108257 0.837704 0.032574
v -1.590088 0.818121 -0.395042
v -1.103852 0.945710 -0.327600
v -0.734566 0.299243 0.712711
v -0.373341 -0.061476 1.034498
v -0.431074 0.472559 -0.253175
v 0.653342 0.734796 -0.668374
v 0.428368 0.697917 -0.910301
v -0.611133 0.734208 -0.727273
vt 0.047450 0.232670
vt 0.098630 0.229000
vt 0.009700 0.230830
vt 0.586060 0.163390
vt 0.500000 0.162110
vt 0.501650 0.113100
vt 0.582210 0.271580
vt 0.503910 0.273440
vt 0.418910 0.051330
vt 0.224820 0.004790
vt 0.418910 0.008700
vt 0.786830 0.958280
vt 0.724820 0.958280
vt 0.724820 0.911770
vt 0.278320 0.961730
vt 0.334080 0.961730
vt 0.334080 0.992950
vt 0.278320 0.914860
vt 0.334080 0.914860
vt 0.278320 0.856290
vt 0.425780 0.566410
vt 0.505310 0.551670
vt 0.425660 0.625890
vt 0.509580 0.947570
vt 0.402340 0.992190
vt 0.402340 0.941410
vt 0.441410 0.992190
vt 0.441410 0.941410
vt 0.068790 0.220950
vt 0.007780 0.202450
vt 0.007780 0.109440
vt 0.127930 0.206330
vt 0.104680 0.276090
vt 0.220950 0.159820
vt 0.007780 0.047420
vt 0.224820 0.109440
vt 0.007780 0.004790
vt 0.774350 0.047330
vt 0.774350 0.109220
vt 0.989230 0.004790
vt 0.774350 0.004790
vt 0.582210 0.113100
vt 0.582210 0.353000
vt 0.503910 0.355470
vt 0.582210 0.461150
vt 0.503910 0.460940
vt 0.418910 0.353730
vt 0.418910 0.462160
vt 0.316410 0.392580
vt 0.279080 0.427370
vt 0.259700 0.349820
vt 0.217070 0.423460
vt 0.217070 0.349820
vt 0.104680 0.349820
vt 0.217070 0.276090
vt 0.259700 0.268280
vt 0.415040 0.163730
vt 0.224820 0.047420
vt 0.418910 0.113340
vt 0.418910 0.272190
vt 0.104680 0.423460
vt 0.104680 0.493130
vt 0.217070 0.493130
vt 0.279080 0.493130
vt 0.317840 0.493130
vt 0.582210 0.008700
vt 0.501650 0.051240
vt 0.501650 0.008700
vt 0.582210 0.051240
vt 0.500310 0.051330
vt 0.500310 0.008700
vt 0.500310 0.113340
vt 0.739840 0.267700
vt 0.782040 0.275510
vt 0.782040 0.349090
vt 0.778200 0.159480
vt 0.870300 0.205900
vt 0.989230 0.109220
vt 0.989230 0.202030
vt 0.928830 0.220490
vt 0.893310 0.275510
vt 0.893310 0.349090
vt 0.893310 0.422580
vt 0.782040 0.422580
vt 0.782040 0.492070
vt 0.720640 0.492070
vt 0.720640 0.426480
vt 0.682280 0.492070
vt 0.671880 0.400390
vt 0.739840 0.349090
vt 0.989230 0.047330
vt 0.893310 0.492070
vt 0.786830 0.504820
vt 0.786830 0.547450
vt 0.628230 0.504820
vt 0.992250 0.547450
vt 0.992250 0.504820
vt 0.562100 0.504820
vt 0.675570 0.547450
vt 0.596980 0.547450
vt 0.786830 0.690860
vt 0.992250 0.609470
vt 0.875000 0.703130
vt 0.992250 0.702480
vt 0.928410 0.725710
vt 0.914060 0.785160
vt 0.843750 0.765630
vt 0.786830 0.853640
vt 0.786830 0.768370
vt 0.686130 0.768370
vt 0.686130 0.690860
vt 0.604680 0.690860
vt 0.581420 0.624970
vt 0.503910 0.613340
vt 0.503910 0.690860
vt 0.603420 0.769530
vt 0.656490 0.853060
vt 0.724820 0.853640
vt 0.786830 0.911770
vt 0.899230 0.911770
vt 0.899230 0.958280
vt 0.786830 0.989290
vt 0.899230 0.989290
vt 0.899990 0.853060
vt 0.582030 0.570310
vt 0.503910 0.551330
vt 0.503910 0.504820
vt 0.670560 0.911770
vt 0.724820 0.989290
vt 0.670560 0.958280
vt 0.670560 0.989290
vt 0.003570 0.504820
vt 0.214630 0.504820
vt 0.003570 0.547790
vt 0.003570 0.610260
vt 0.069150 0.727390
vt 0.003570 0.703980
vt 0.124050 0.704650
vt 0.214630 0.692260
vt 0.214630 0.547790
vt 0.377900 0.504820
vt 0.329280 0.547790
vt 0.445530 0.504820
vt 0.409670 0.547790
vt 0.317990 0.692260
vt 0.214630 0.770360
vt 0.156160 0.767610
vt 0.084350 0.779510
vt 0.214630 0.856290
vt 0.098360 0.855680
vt 0.099150 0.914860
vt 0.214630 0.914860
vt 0.099150 0.961730
vt 0.214630 0.961730
vt 0.099150 0.992950
vt 0.214630 0.992950
vt 0.278320 0.992950
vt 0.348540 0.855680
vt 0.317990 0.770360
vt 0.406070 0.771550
vt 0.401760 0.692260
vt 0.505310 0.692260
vt 0.505310 0.614170
vt 0.505310 0.504820
vt 0.562500 0.992190
vt 0.562500 0.976560
vt 0.607420 0.992190
vt 0.519530 0.992190
vt 0.519530 0.941410
vt 0.476560 0.992190
vt 0.476560 0.941410
vn 0.412300 -0.911000 -0.008100
vn 0.710300 -0.617800 0.337200
vn 0.722200 -0.680300 -0.125200
vn -0.179400 -0.556100 -0.811500
vn 0.074900 -0.436500 -0.896600
vn 0.086100 -0.194300 -0.977100
vn 0.011800 -0.252000 -0.967600
vn 0.046400 -0.199000 -0.978900
vn 0.477500 -0.367900 -0.797900
vn 0.114400 -0.980300 -0.160800
vn 0.146300 0.988700 0.032800
vn 0.199300 0.978500 0.051900
vn 0.076300 0.925700 0.370400
vn -0.222100 0.974400 0.035100
vn 0.366900 0.925700 0.091400
vn 0.376000 0.914700 -0.148200
vn -0.154500 0.891800 0.425300
vn 0.418500 0.832500 0.363000
vn -0.406000 0.634500 0.657600
vn -0.433900 0.079700 0.897400
vn -0.029500 0.016200 0.999400
vn 0.013600 0.531100 0.847200
vn 0.969500 -0.045700 0.240800
vn 0.917800 -0.393700 -0.050100
vn 0.985800 0.167700 0.006400
vn -0.048900 0.966700 -0.251000
vn -0.029000 0.335000 0.941700
vn -0.118000 0.882800 -0.454600
vn 0.414700 0.435900 0.798700
vn 0.149800 0.827000 -0.541800
vn 0.986400 -0.049500 -0.156400
vn 0.953800 0.266400 -0.139000
vn 0.878600 0.422300 -0.222600
vn 0.952500 -0.119700 -0.280100
vn 0.707200 -0.504400 -0.495300
vn 0.708900 -0.647300 -0.279900
vn 0.975100 -0.136500 -0.174600
vn 0.387700 -0.874900 -0.290200
vn -0.888300 -0.301100 -0.346700
vn -0.384000 -0.875300 -0.294000
vn -0.746500 -0.664600 -0.031000
vn -0.624300 -0.767600 -0.145000
vn -0.343500 -0.554500 -0.757900
vn 0.032400 -0.040500 -0.998600
vn 0.021000 -0.119400 -0.992600
vn 0.089800 -0.080400 -0.992700
vn 0.287800 0.216800 -0.932800
vn 0.287800 0.418700 -0.861300
vn 0.580800 -0.144700 -0.801000
vn 0.098500 0.404200 -0.909300
vn 0.724300 -0.239500 -0.646500
vn 0.757100 -0.472600 -0.451000
vn 0.691600 -0.378600 -0.615100
vn 0.660200 -0.240400 -0.711500
vn 0.119500 -0.647900 -0.752300
vn 0.897100 -0.284300 -0.338100
vn 0.368100 -0.529300 -0.764400
vn 0.056400 -0.202300 -0.977700
vn 0.802500 -0.345300 -0.486600
vn 0.914000 0.106500 -0.391500
vn 0.085600 0.839200 -0.537000
vn 0.243500 0.831100 -0.500000
vn -0.425200 0.902200 -0.072200
vn -0.099600 -0.982300 -0.158400
vn 0.039400 -0.431700 -0.901200
vn 0.011100 -0.979500 -0.201300
vn -0.455400 -0.357300 -0.815400
vn -0.565300 -0.371700 -0.736300
vn -0.669900 -0.380200 -0.637700
vn -0.682300 -0.260400 -0.683000
vn -0.688800 -0.634400 -0.350700
vn -0.968000 -0.114200 -0.223300
vn -0.888600 0.392000 -0.237900
vn -0.953400 0.180400 -0.241700
vn -0.988400 -0.139300 -0.059900
vn -0.681000 -0.545400 -0.488700
vn -0.705300 -0.536100 -0.463700
vn -0.812700 -0.273600 -0.514400
vn -0.018500 0.445600 -0.895000
vn -0.034100 0.826300 -0.562100
vn -0.141900 0.818700 -0.556400
vn -0.219300 0.476700 -0.851200
vn -0.207100 0.222200 -0.952700
vn -0.563700 -0.135900 -0.814700
vn -0.975700 -0.140800 -0.167700
vn -0.886300 0.112400 -0.449100
vn 0.796200 -0.501600 0.338300
vn 0.293700 -0.752000 0.590100
vn 0.115000 -0.657400 0.744700
vn 0.555800 -0.148500 0.817900
vn 0.355000 -0.539100 0.763700
vn 0.953000 0.029700 0.301400
vn 0.996200 -0.086600 0.005800
vn 0.948300 -0.253700 -0.190600
vn 0.899300 -0.216900 0.379600
vn 0.897200 -0.024000 0.441000
vn 0.437800 0.499100 0.747800
vn 0.939600 0.088000 0.330600
vn 0.430800 0.424400 0.796400
vn 0.606500 -0.045400 0.793800
vn 0.134400 0.237800 0.961900
vn -0.022600 0.511200 0.859100
vn -0.043400 0.533500 0.844700
vn -0.044300 0.236300 0.970600
vn 0.192900 0.494900 0.847300
vn 0.265700 0.706200 0.656300
vn 0.292200 0.684800 0.667600
vn 0.230800 0.853000 0.468100
vn 0.932500 -0.235900 0.273400
vn 0.358700 0.059100 0.931600
vn 0.003000 -0.722100 0.691700
vn -0.387600 0.843800 0.371100
vn -0.359400 0.926700 0.109800
vn -0.702700 -0.619700 0.349400
vn -0.991800 0.020100 -0.125900
vn -0.998800 0.040600 -0.025700
vn -0.966600 0.057600 0.249700
vn -0.799400 -0.494000 0.341900
vn -0.337500 -0.741100 0.580300
vn -0.608100 -0.357400 0.708800
vn -0.210100 -0.688200 0.694400
vn -0.384700 -0.521200 0.761800
vn -0.589600 0.189000 0.785200
vn -0.938700 0.115700 0.324800
vn -0.921800 -0.120300 0.368300
vn -0.786200 -0.466600 0.405200
vn -0.411500 0.502100 0.760600
vn -0.904800 -0.348000 0.245500
vn -0.971500 -0.110500 0.209400
vn -0.200600 0.845600 0.494600
vn -0.987600 0.153600 -0.031300
vn -0.129800 0.991100 0.028100
vn -0.330800 0.690200 0.643600
vn -0.497400 0.425500 0.756000
vn -0.265900 0.481600 0.835100
vn -0.220200 0.225100 0.949100
vn -0.914200 -0.395000 -0.090400
vn -0.907100 0.400500 0.129200
vn -0.970900 0.157200 0.180400
vn -0.891500 0.213600 0.399400
vn -0.415800 0.487800 0.767500
vn 0.851300 0.138300 0.506000
vn 0.969000 0.171200 0.177900
vn 0.899400 0.432500 0.062600
usemtl blue.png.003
s 1
f 16/1/1 17/2/2 18/3/3
usemtl shirt.png.004
f 36/4/4 37/5/5 38/6/6
f 39/7/7 37/5/5 36/4/4
f 39/7/7 40/8/8 37/5/5
f 41/9/9 18/10/3 29/11/10
f 42/12/11 43/13/12 44/14/13
f 45/15/14 46/16/15 47/17/16
f 48/18/17 46/16/15 45/15/14
f 48/18/17 49/19/18 46/16/15
f 50/20/19 49/19/18 48/18/17
f 51/21/20 52/22/21 53/23/22
f 54/24/23 55/24/24 56/24/25
f 57/25/26 58/26/27 59/27/28
f 57/25/26 60/28/29 58/26/27
f 61/27/30 60/28/29 57/25/26
f 62/29/31 63/30/32 64/31/33
f 62/29/31 65/32/34 66/33/35
f 64/31/33 65/32/34 62/29/31
f 64/31/33 67/34/36 65/32/34
f 68/35/37 67/34/36 64/31/33
f 68/35/37 69/36/38 67/34/36
f 16/37/1 69/36/38 68/35/37
f 70/38/39 71/39/40 36/4/4
f 70/38/39 25/40/41 71/39/40
f 70/38/39 26/41/42 25/40/41
f 70/38/39 72/42/43 26/41/42
f 36/4/4 72/42/43 70/38/39
f 36/4/4 38/6/6 72/42/43
f 73/43/44 40/8/8 39/7/7
f 73/43/44 74/44/45 40/8/8
f 61/45/30 74/44/45 73/43/44
f 57/46/26 74/44/45 61/45/30
f 57/46/26 75/47/46 74/44/45
f 59/48/28 75/47/46 57/46/26
f 59/48/28 76/49/47 75/47/46
f 77/50/48 76/49/47 59/48/28
f 77/50/48 78/51/49 76/49/47
f 79/52/50 78/51/49 77/50/48
f 79/52/50 80/53/51 78/51/49
f 81/54/52 80/53/51 79/52/50
f 66/33/35 80/53/51 81/54/52
f 66/33/35 82/55/53 80/53/51
f 65/32/34 82/55/53 66/33/35
f 65/32/34 83/56/54 82/55/53
f 67/34/36 83/56/54 65/32/34
f 67/34/36 84/57/55 83/56/54
f 69/36/38 84/57/55 67/34/36
f 69/36/38 85/58/56 84/57/55
f 16/37/1 85/58/56 69/36/38
f 18/10/3 85/58/56 16/37/1
f 86/59/57 85/58/56 18/10/3
f 86/59/57 84/57/55 85/58/56
f 37/5/5 84/57/55 86/59/57
f 40/8/8 84/57/55 37/5/5
f 40/8/8 87/60/58 84/57/55
f 74/44/45 87/60/58 40/8/8
f 75/47/46 87/60/58 74/44/45
f 75/47/46 83/56/54 87/60/58
f 78/51/49 83/56/54 75/47/46
f 78/51/49 82/55/53 83/56/54
f 80/53/51 82/55/53 78/51/49
f 76/49/47 78/51/49 75/47/46
f 87/60/58 83/56/54 84/57/55
f 79/52/50 88/61/59 81/54/52
f 79/52/50 89/62/60 88/61/59
f 79/52/50 90/63/61 89/62/60
f 77/50/48 90/63/61 79/52/50
f 77/50/48 91/64/62 90/63/61
f 59/48/28 91/64/62 77/50/48
f 59/48/28 92/65/63 91/64/62
f 27/66/64 93/67/65 28/68/66
f 27/66/64 94/69/67 93/67/65
f 26/41/42 94/69/67 27/66/64
f 72/42/43 94/69/67 26/41/42
f 72/42/43 93/67/65 94/69/67
f 38/6/6 93/67/65 72/42/43
f 93/70/65 29/11/10 28/71/66
f 41/9/9 29/11/10 93/70/65
f 41/9/9 86/59/57 18/10/3
f 38/72/6 86/59/57 41/9/9
f 38/72/6 37/5/5 86/59/57
f 41/9/9 93/70/65 38/72/6
f 95/73/68 96/74/69 97/75/70
f 98/76/71 96/74/69 95/73/68
f 98/76/71 99/77/72 96/74/69
f 100/78/73 99/77/72 98/76/71
f 101/79/74 99/77/72 100/78/73
f 102/80/75 99/77/72 101/79/74
f 103/81/76 99/77/72 102/80/75
f 103/81/76 96/74/69 99/77/72
f 104/82/77 96/74/69 103/81/76
f 104/82/77 97/75/70 96/74/69
f 105/83/78 97/75/70 104/82/77
f 105/83/78 106/84/79 97/75/70
f 107/85/80 106/84/79 105/83/78
f 108/86/81 106/84/79 107/85/80
f 108/86/81 109/87/82 106/84/79
f 47/88/16 109/87/82 108/86/81
f 61/45/30 109/87/82 47/88/16
f 61/45/30 110/89/83 109/87/82
f 73/43/44 110/89/83 61/45/30
f 73/43/44 111/90/84 110/89/83
f 39/7/7 111/90/84 73/43/44
f 39/7/7 95/73/68 111/90/84
f 39/7/7 98/76/71 95/73/68
f 36/4/4 98/76/71 39/7/7
f 71/39/40 98/76/71 36/4/4
f 71/39/40 112/91/85 98/76/71
f 25/40/41 112/91/85 71/39/40
f 98/76/71 112/91/85 100/78/73
f 111/90/84 109/87/82 110/89/83
f 111/90/84 106/84/79 109/87/82
f 111/90/84 97/75/70 106/84/79
f 95/73/68 97/75/70 111/90/84
f 105/83/78 113/92/86 107/85/80
f 17/93/2 114/94/87 19/95/88
f 17/93/2 68/96/37 114/94/87
f 16/97/1 68/96/37 17/93/2
f 20/98/89 115/99/90 116/100/91
f 19/95/88 115/99/90 20/98/89
f 114/94/87 115/99/90 19/95/88
f 114/94/87 117/101/92 115/99/90
f 68/96/37 117/101/92 114/94/87
f 64/102/33 117/101/92 68/96/37
f 64/102/33 118/103/93 117/101/92
f 63/104/32 118/103/93 64/102/33
f 119/105/94 118/103/93 63/104/32
f 120/106/95 118/103/93 119/105/94
f 120/106/95 121/107/96 118/103/93
f 122/108/97 121/107/96 120/106/95
f 122/108/97 123/109/98 121/107/96
f 124/110/99 123/109/98 122/108/97
f 124/110/99 125/111/100 123/109/98
f 126/112/101 125/111/100 124/110/99
f 126/112/101 127/113/102 125/111/100
f 126/112/101 128/114/103 127/113/102
f 126/112/101 8/115/104 128/114/103
f 126/112/101 15/116/105 8/115/104
f 124/110/99 15/116/105 126/112/101
f 124/110/99 14/117/106 15/116/105
f 129/118/107 14/117/106 124/110/99
f 129/118/107 44/14/13 14/117/106
f 130/119/108 44/14/13 129/118/107
f 130/119/108 42/12/11 44/14/13
f 54/120/23 42/12/11 130/119/108
f 56/121/25 42/12/11 54/120/23
f 56/121/25 90/122/61 42/12/11
f 89/123/60 90/122/61 56/121/25
f 115/99/90 117/101/92 116/100/91
f 122/108/97 129/118/107 124/110/99
f 122/108/97 130/119/108 129/118/107
f 131/124/109 130/119/108 122/108/97
f 131/124/109 54/120/23 130/119/108
f 122/108/97 120/106/95 131/124/109
f 121/107/96 117/101/92 118/103/93
f 123/109/98 117/101/92 121/107/96
f 125/111/100 117/101/92 123/109/98
f 125/111/100 116/100/91 117/101/92
f 125/111/100 132/125/110 116/100/91
f 127/113/102 132/125/110 125/111/100
f 128/114/103 132/125/110 127/113/102
f 52/126/21 132/125/110 128/114/103
f 21/127/111 132/125/110 52/126/21
f 20/98/89 132/125/110 21/127/111
f 20/98/89 116/100/91 132/125/110
f 44/14/13 133/128/112 14/117/106
f 44/14/13 43/13/12 133/128/112
f 90/122/61 43/13/12 42/12/11
f 91/129/62 43/13/12 90/122/61
f 91/129/62 134/130/113 43/13/12
f 92/131/63 134/130/113 91/129/62
f 134/130/113 133/128/112 43/13/12
f 25/132/41 24/133/114 112/134/85
f 100/135/73 135/136/115 101/137/74
f 100/135/73 136/138/116 135/136/115
f 100/135/73 137/139/117 136/138/116
f 112/134/85 137/139/117 100/135/73
f 112/134/85 138/140/118 137/139/117
f 24/133/114 138/140/118 112/134/85
f 24/133/114 23/141/119 138/140/118
f 138/140/118 139/142/120 137/139/117
f 23/141/119 139/142/120 138/140/118
f 22/143/121 139/142/120 23/141/119
f 140/144/122 139/142/120 22/143/121
f 141/145/123 139/142/120 140/144/122
f 141/145/123 137/139/117 139/142/120
f 142/146/124 137/139/117 141/145/123
f 142/146/124 136/138/116 137/139/117
f 143/147/125 136/138/116 142/146/124
f 143/147/125 135/136/115 136/138/116
f 143/147/125 144/148/126 135/136/115
f 145/149/127 144/148/126 143/147/125
f 145/149/127 146/150/128 144/148/126
f 145/149/127 147/151/129 146/150/128
f 148/152/130 147/151/129 145/149/127
f 148/152/130 149/153/131 147/151/129
f 150/154/132 149/153/131 148/152/130
f 150/154/132 113/155/86 149/153/131
f 150/154/132 107/156/80 113/155/86
f 150/154/132 108/157/81 107/156/80
f 45/15/14 108/157/81 150/154/132
f 45/15/14 47/17/16 108/157/81
f 50/20/19 9/158/133 49/19/18
f 151/159/134 9/158/133 50/20/19
f 151/159/134 7/160/135 9/158/133
f 152/161/136 7/160/135 151/159/134
f 152/161/136 8/162/104 7/160/135
f 152/161/136 128/163/103 8/162/104
f 152/161/136 53/23/22 128/163/103
f 141/145/123 53/23/22 152/161/136
f 141/145/123 51/21/20 53/23/22
f 140/144/122 51/21/20 141/145/123
f 22/143/121 51/21/20 140/144/122
f 22/143/121 52/22/21 51/21/20
f 21/164/111 52/22/21 22/143/121
f 143/147/125 142/146/124 145/149/127
f 148/152/130 45/15/14 150/154/132
f 148/152/130 48/18/17 45/15/14
f 145/149/127 48/18/17 148/152/130
f 145/149/127 50/20/19 48/18/17
f 142/146/124 50/20/19 145/149/127
f 142/146/124 151/159/134 50/20/19
f 141/145/123 151/159/134 142/146/124
f 152/161/136 151/159/134 141/145/123
f 53/23/22 52/22/21 128/163/103
f 119/24/94 55/24/24 120/24/95
f 63/24/32 55/24/24 119/24/94
f 62/24/31 55/24/24 63/24/32
f 66/24/35 55/24/24 62/24/31
f 81/24/52 55/24/24 66/24/35
f 88/24/59 55/24/24 81/24/52
f 89/24/60 55/24/24 88/24/59
f 56/24/25 55/24/24 89/24/60
f 131/24/109 55/24/24 54/24/23
f 131/24/109 120/24/95 55/24/24
f 144/24/126 153/24/137 135/24/115
f 146/24/128 153/24/137 144/24/126
f 147/24/129 153/24/137 146/24/128
f 149/24/131 153/24/137 147/24/129
f 113/24/86 153/24/137 149/24/131
f 105/24/78 153/24/137 113/24/86
f 104/24/77 153/24/137 105/24/78
f 103/24/76 153/24/137 104/24/77
f 102/24/75 153/24/137 103/24/76
f 101/24/74 153/24/137 102/24/75
f 101/24/74 135/24/115 153/24/137
f 133/165/112 12/166/138 14/167/106
f 134/168/113 12/166/138 133/165/112
f 134/168/113 13/169/139 12/166/138
f 92/170/63 13/169/139 134/168/113
f 92/170/63 154/171/140 13/169/139
f 59/27/28 154/171/140 92/170/63
f 59/27/28 155/28/141 154/171/140
f 59/27/28 58/26/27 155/28/141
f 47/170/16 60/28/29 61/27/30
f 47/170/16 156/171/142 60/28/29
f 46/168/15 156/171/142 47/170/16
f 46/168/15 11/169/143 156/171/142
f 49/165/18 11/169/143 46/168/15
f 49/165/18 10/166/144 11/169/143
f 9/167/133 10/166/144 49/165/18
