# Blender v2.75 (sub 0) OBJ File: ''
# www.blender.org
mtllib GokuRUArm.mtl
o Mesh.103_DrawCall_144
v -0.019242 0.210925 0.099347
v 0.232170 0.056327 -0.028221
v 0.229485 0.377585 0.201273
v 0.262683 -0.352324 -0.201085
v -0.302570 -0.171556 -0.119760
v -0.126081 0.329240 0.022474
v -0.349177 0.174477 -0.264801
v 0.396069 -0.257905 -0.587197
v 0.368073 -0.144876 -0.861733
v 0.373219 0.009175 -0.406225
v -0.042979 0.538366 -0.842671
v 0.260989 0.346571 -0.820103
v 0.179814 0.276209 -0.838670
v -0.216539 0.769263 -0.731556
v 0.190019 0.849540 -0.650158
v 0.236235 0.604287 -0.768852
v -0.264052 0.721175 -0.116969
v 0.163311 0.861445 -0.014588
v 0.161512 0.943208 -0.327785
v 0.156855 -0.733625 -0.886880
v 0.015749 -0.666024 -0.884321
v 0.118273 -0.390254 -1.001627
v -0.044672 -0.839024 -0.921432
v 0.023337 -0.878483 -0.876083
v -0.174056 -0.971818 -0.952266
v -0.032938 -1.034461 -0.900855
v 0.308544 -0.028590 -0.395782
v 0.274791 0.079754 -0.002329
v -0.001230 -0.316909 -0.036604
v 0.129472 -0.896688 -0.524390
v -0.018254 -1.064060 -0.603757
v -0.620668 -0.814021 -0.907749
v -0.618414 -0.838963 -0.610801
v -0.567003 -0.657073 -0.883011
v -0.620782 -0.586327 -0.649613
v -0.593369 -0.478364 -0.825767
v -0.450330 -0.076379 -0.591839
v -0.421697 -0.153615 -0.415678
v -0.539078 -0.677805 -0.481337
v -0.430156 -0.692619 -0.251287
v -0.426674 -0.848308 -0.431612
v -0.082996 -0.815945 -0.272008
v -0.176252 -0.942237 -0.428582
v -0.518427 0.233627 -0.560316
v -0.460256 0.238914 -0.285381
v -0.374274 -0.023946 -0.813444
v -0.427539 -0.206242 -0.949998
v -0.183635 0.085541 -0.934907
v -0.107298 0.192981 -0.926608
v -0.356698 0.261992 -0.855169
v -0.300925 0.836030 -0.413804
v -0.209601 0.432529 0.033850
v -0.322597 -0.450385 -1.126151
v -0.157447 -0.723003 -1.158211
v -0.387330 -0.636779 -1.160911
v -0.092759 -0.536585 -1.123446
v -0.211097 -0.144172 -1.093731
v 0.003191 -0.222592 -1.123093
v 0.056587 0.044621 -1.060902
v 0.247903 -0.046206 -1.014253
v 0.265109 0.167260 -0.840293
v 0.362991 0.061232 -0.699017
v 0.308022 0.044960 -0.691516
v -0.267563 -0.911074 -1.084812
v -0.490357 -0.853186 -0.955977
v -0.485752 -0.673592 -0.926601
v -0.425336 -0.500588 -0.889502
v 0.184220 0.669703 0.144197
v -0.410632 -0.857415 -1.086501
v 0.288070 0.189775 -0.817892
v 0.310165 1.028346 -0.326079
v -0.058524 0.891164 -0.055445
v 0.311632 0.943860 -0.009065
v -0.059469 0.996117 -0.371605
v 0.344350 0.918534 -0.724853
v 0.023093 0.898978 -0.768953
v 0.387854 0.699337 -0.897101
v 0.231785 0.382994 -0.938279
v 0.124529 0.675785 -0.936457
v 0.434640 0.422516 -0.911363
v -0.262414 0.436021 0.094359
v -0.525555 0.380188 -0.231579
v -0.347007 0.268260 0.042726
v -0.373706 0.660616 -0.132915
v -0.584934 0.447842 -0.534457
v -0.377362 0.778180 -0.444726
v 0.442298 0.033519 -0.793019
v -0.203179 0.270934 -1.031012
v 0.119431 0.168157 -0.997572
v 0.509596 -0.021022 -0.401389
v 0.418118 -0.038761 -0.113444
v 0.248966 -0.000901 0.123129
v -0.017429 0.107083 0.247136
v -0.419623 0.389770 -0.927176
v 0.310775 0.031269 -0.788693
v 0.146323 0.292172 -0.952037
v 0.006433 0.642634 0.163340
v 0.221332 0.303132 0.316785
v 0.341760 0.716058 0.191595
v -0.035158 0.536642 -0.986296
v 0.328237 -0.161255 -0.420050
v 0.318512 -0.179169 -0.100751
v 0.278519 -0.000535 0.154287
v -0.224041 0.722036 -0.831196
v 0.298304 -0.505168 -0.474918
v 0.409540 -0.033603 -0.939476
v 0.391302 -0.002488 -0.867912
v 0.321844 0.362564 -1.022679
v 0.313908 -0.526572 -0.665177
v 0.318774 -0.365423 -0.504525
v 0.183082 -0.424502 0.042145
v 0.219339 -0.261648 -0.083200
v 0.228498 -0.259594 -0.441578
v 0.257304 -0.045744 -0.853987
v 0.015864 0.292481 -1.027459
v -0.191133 0.578028 -1.008447
v 0.204163 0.740841 -0.937059
v 0.130930 0.993533 -0.767788
v 0.340834 0.328324 -1.095725
v 0.044212 -0.573473 0.052523
v -0.354653 0.869138 -0.856479
v 0.149933 -0.084137 0.192839
v 0.210604 -0.087965 0.427275
v 0.169733 -0.163407 0.590527
v 0.184938 0.323194 0.520528
v 0.202446 0.302698 0.444838
v 0.023535 0.206598 0.381209
v 0.118505 0.732176 0.333114
v -0.210062 0.602985 0.192889
v -0.351778 0.816741 -0.029412
v 0.059565 0.984971 0.032574
v -0.422266 0.965388 -0.395042
v 0.063970 1.092976 -0.327600
v 0.736748 0.619826 -0.253175
vt 0.269530 0.899750
vt 0.113950 0.899750
vt 0.268950 0.975460
vt 0.113950 0.824100
vt 0.326080 0.824100
vt 0.326170 0.904300
vt 0.382810 0.857420
vt 0.927090 0.824100
vt 0.863460 0.824100
vt 0.927090 0.899750
vt 0.656250 0.927460
vt 0.703640 0.997920
vt 0.722380 0.975010
vt 0.586820 0.927920
vt 0.585940 0.976560
vt 0.656250 0.976560
vt 0.409360 0.940640
vt 0.411440 0.976560
vt 0.476560 0.976560
vt 0.927090 0.585270
vt 0.863460 0.585270
vt 0.863460 0.672820
vt 0.863460 0.513580
vt 0.927090 0.513580
vt 0.863460 0.457860
vt 0.927090 0.457860
vt 0.050320 0.899750
vt 0.050320 0.975400
vt 0.113950 0.975400
vt 0.050320 0.824100
vt 0.269530 0.824100
vt 0.113950 0.585270
vt 0.050320 0.585270
vt 0.113950 0.513580
vt 0.050320 0.513580
vt 0.050320 0.457860
vt 0.502840 0.513580
vt 0.587710 0.513580
vt 0.587710 0.457860
vt 0.502840 0.585270
vt 0.587710 0.585270
vt 0.502840 0.784610
vt 0.446290 0.800230
vt 0.446290 0.585270
vt 0.326080 0.640990
vt 0.375580 0.513580
vt 0.269530 0.640990
vt 0.227080 0.513580
vt 0.476560 0.878910
vt 0.410160 0.902340
vt 0.587710 0.784610
vt 0.651340 0.728580
vt 0.651340 0.824100
vt 0.656250 0.882810
vt 0.587710 0.879240
vt 0.476560 0.927730
vt 0.325260 0.975160
vt 0.722050 0.585270
vt 0.799800 0.513580
vt 0.722050 0.513580
vt 0.799800 0.585270
vt 0.722050 0.752440
vt 0.799800 0.752440
vt 0.722050 0.824100
vt 0.799800 0.824100
vt 0.798340 0.900330
vt 0.863460 0.899750
vt 0.863460 0.975400
vt 0.927090 0.975400
vt 0.799800 0.457860
vt 0.651340 0.457860
vt 0.651340 0.513580
vt 0.651340 0.585270
vt 0.324770 0.995540
vt 0.722050 0.457860
vt 0.797910 0.975010
vt 0.009920 0.545960
vt 0.058350 0.504270
vt 0.009920 0.504270
vt 0.058350 0.545960
vt 0.058350 0.459290
vt 0.106750 0.459290
vt 0.159390 0.504270
vt 0.137480 0.459290
vt 0.106750 0.504270
vt 0.170140 0.545960
vt 0.106750 0.545960
vt 0.160160 0.332030
vt 0.160160 0.339840
vt 0.160160 0.335940
vt 0.160160 0.326170
vt 0.156250 0.324220
vt 0.152340 0.326170
vt 0.152340 0.332030
vt 0.152340 0.335940
vt 0.152340 0.339840
vt 0.152340 0.343750
vt 0.160160 0.343750
vt 0.009920 0.392270
vt 0.009920 0.459290
vt 0.106750 0.392270
vt 0.009920 0.334170
vt 0.106750 0.334170
vt 0.106750 0.274350
vt 0.009920 0.274350
vt 0.739840 0.267700
vt 0.782040 0.275510
vt 0.782040 0.349090
vt 0.778200 0.159480
vt 0.870300 0.205900
vt 0.989230 0.109220
vt 0.989230 0.202030
vt 0.928830 0.220490
vt 0.893310 0.275510
vt 0.893310 0.349090
vt 0.893310 0.422580
vt 0.782040 0.422580
vt 0.782040 0.492070
vt 0.774350 0.109220
vt 0.989230 0.047330
vt 0.739840 0.349090
vt 0.893310 0.492070
vt 0.003570 0.610260
vt 0.069150 0.727390
vt 0.003570 0.703980
vt 0.124050 0.704650
vt 0.214630 0.692260
vt 0.003570 0.547790
vt 0.214630 0.770360
vt 0.156160 0.767610
vt 0.084350 0.779510
vt 0.214630 0.856290
vt 0.098360 0.855680
vt 0.099150 0.914860
vt 0.214630 0.914860
vt 0.099150 0.961730
vt 0.214630 0.961730
vt 0.099150 0.992950
vt 0.214630 0.992950
vt 0.509580 0.947570
vn 0.930400 0.351800 0.102300
vn 0.342700 -0.603000 0.720300
vn -0.272400 -0.183800 0.944500
vn 0.758600 -0.307600 0.574300
vn -0.695600 -0.037100 0.717500
vn -0.502900 -0.274000 0.819800
vn -0.638800 -0.252000 0.726900
vn 0.984600 -0.171600 0.033500
vn 0.898700 -0.031100 -0.437300
vn 0.600600 0.756500 0.258700
vn 0.022200 0.321800 -0.946500
vn 0.178700 0.107800 -0.978000
vn 0.253100 0.267400 -0.929700
vn -0.414000 0.657900 -0.629000
vn -0.046900 0.789900 -0.611400
vn 0.146500 0.355400 -0.923100
vn -0.638100 0.540500 0.548300
vn -0.425600 0.721600 0.546000
vn -0.264300 0.964000 0.028300
vn 0.623100 -0.391600 -0.677000
vn 0.385500 -0.189500 -0.903000
vn 0.438300 -0.297500 -0.848100
vn 0.563000 -0.279300 -0.777800
vn 0.633300 -0.438400 -0.637700
vn 0.544100 -0.362000 -0.756900
vn 0.767200 -0.179000 -0.615900
vn -0.499300 0.863500 -0.071000
vn -0.009400 -0.745600 0.666300
vn 0.115500 -0.302300 0.946100
vn 0.762000 -0.597300 0.249900
vn 0.689700 -0.704900 0.165300
vn -0.951400 -0.006700 0.307800
vn -0.756500 0.175200 -0.630100
vn -0.743900 0.344600 -0.572500
vn -0.984800 0.098900 0.142900
vn -0.862300 0.177300 -0.474200
vn -0.996200 0.069500 -0.052600
vn -0.936900 0.053100 0.345500
vn -0.857300 -0.050300 0.512300
vn -0.611700 -0.337700 0.715400
vn -0.556200 -0.553900 0.619500
vn 0.162400 -0.617700 0.769400
vn -0.089600 -0.748400 0.657100
vn -0.987600 0.090200 -0.128500
vn -0.847000 -0.102500 0.521600
vn -0.820300 0.275900 -0.500800
vn -0.728900 0.236400 -0.642400
vn -0.533500 0.504900 -0.678500
vn -0.185600 0.339400 -0.922100
vn -0.606600 0.146800 -0.781300
vn -0.648900 0.760700 0.010400
vn -0.581500 -0.044400 0.812300
vn -0.519900 0.301100 -0.799400
vn 0.415300 -0.228600 -0.880500
vn -0.540600 0.102400 -0.835000
vn 0.512500 -0.071400 -0.855700
vn -0.379100 0.304800 -0.873700
vn 0.249500 -0.034700 -0.967700
vn 0.101700 0.452800 -0.885800
vn 0.634900 0.123400 -0.762700
vn 0.816200 0.033200 -0.576900
vn 0.690700 0.712800 0.121500
vn -0.155100 0.891800 0.424900
vn 0.243300 -0.472900 -0.846800
vn -0.710200 0.102600 -0.696500
vn -0.693600 0.232400 -0.681800
vn -0.649400 0.176800 -0.739600
vn -0.448700 0.365800 0.815300
vn -0.540200 -0.217100 -0.813000
vn 0.651300 0.006900 -0.758800
vn -0.105000 0.994200 0.020800
vn -0.390700 0.758800 0.521200
vn -0.189500 0.818700 0.542000
vn -0.340300 0.940200 0.012300
vn 0.015800 0.841000 -0.540700
vn -0.187700 0.813800 -0.549900
vn 0.108800 0.358400 -0.927200
vn 0.216400 -0.109200 -0.970200
vn 0.034700 0.386900 -0.921400
vn 0.158400 -0.111000 -0.981100
vn -0.583500 0.230300 0.778800
vn -0.908400 -0.335800 0.249100
vn -0.740200 -0.477700 0.473200
vn -0.725200 0.503800 0.469200
vn -0.980000 -0.136000 -0.145300
vn -0.711400 0.701100 -0.047900
vn -0.670200 -0.103800 0.734900
vn -0.364900 -0.468900 -0.804300
vn 0.144300 -0.542300 -0.827600
vn -0.985700 -0.141600 -0.090500
vn -0.916300 -0.234700 -0.324500
vn -0.500000 -0.800200 0.331100
vn -0.384200 -0.612500 0.690800
vn -0.751400 -0.174000 -0.636500
vn 0.096800 0.791500 0.603400
vn 0.439000 0.057300 -0.896600
vn -0.337700 0.423800 0.840400
vn -0.199800 -0.009600 0.979800
vn -0.183100 0.513700 0.838200
vn -0.054900 0.287800 -0.956100
vn -0.607800 0.789700 0.083400
vn -0.824200 0.506000 -0.254200
vn -0.591400 -0.572600 0.567700
vn -0.480600 0.619900 -0.620200
vn -0.973700 -0.106200 -0.201700
vn -0.669900 -0.380200 -0.637700
vn -0.682300 -0.260400 -0.683000
vn -0.984000 0.099100 -0.147600
vn -0.968000 -0.114200 -0.223300
vn -0.888600 0.392000 -0.237900
vn -0.953400 0.180400 -0.241700
vn -0.988400 -0.139300 -0.059900
vn -0.681000 -0.545400 -0.488700
vn -0.705300 -0.536100 -0.463700
vn -0.812700 -0.273600 -0.514400
vn -0.047100 0.399800 -0.915400
vn -0.124200 0.804000 -0.581500
vn 0.513000 -0.847300 0.137400
vn -0.721600 0.635200 -0.275200
vn -0.959100 -0.250200 -0.132100
vn -0.886300 0.112400 -0.449100
vn -0.991800 0.020100 -0.125900
vn -0.998800 0.040600 -0.025700
vn -0.959300 0.182000 -0.215800
vn -0.973400 -0.119300 -0.195700
vn -0.921800 -0.120300 0.368300
vn -0.786200 -0.466600 0.405200
vn -0.493400 0.356500 0.793300
vn -0.904800 -0.348000 0.245500
vn -0.971500 -0.110500 0.209400
vn -0.357700 0.791600 0.495300
vn -0.987600 0.153600 -0.031300
vn -0.252900 0.967100 0.025500
vn -0.914200 -0.395000 -0.090400
usemtl arm.png
s 1
f 1/1/1 2/2/2 3/3/3
f 4/4/4 2/2/2 1/1/1
f 5/5/5 6/6/6 7/7/7
f 8/8/8 9/9/9 10/10/10
f 11/11/11 12/12/12 13/13/13
f 14/14/14 15/15/15 16/16/16
f 17/17/17 18/18/18 19/19/19
f 20/20/20 21/21/21 22/22/22
f 20/20/20 23/23/23 21/21/21
f 24/24/24 23/23/23 20/20/20
f 24/24/24 25/25/25 23/23/23
f 26/26/26 25/25/25 24/24/24
f 10/27/10 27/28/27 28/29/28
f 10/27/10 2/2/2 8/30/8
f 28/29/28 2/2/2 10/27/10
f 28/29/28 3/3/3 2/2/2
f 1/1/1 5/5/5 29/31/29
f 1/1/1 3/3/3 5/5/5
f 4/4/4 8/30/8 2/2/2
f 30/32/30 8/30/8 4/4/4
f 30/32/30 20/33/20 8/30/8
f 31/34/31 20/33/20 30/32/30
f 31/34/31 24/35/24 20/33/20
f 31/34/31 26/36/26 24/35/24
f 33/37/32 34/38/33 32/39/34
f 35/40/35 34/38/33 33/37/32
f 35/40/35 36/41/36 34/38/33
f 35/40/35 37/42/37 36/41/36
f 35/40/35 38/43/38 37/42/37
f 39/44/39 38/43/38 35/40/35
f 39/44/39 40/45/40 38/43/38
f 41/46/41 40/45/40 39/44/39
f 41/46/41 42/47/42 40/45/40
f 43/48/43 42/47/42 41/46/41
f 43/48/43 31/34/31 42/47/42
f 39/44/39 33/37/32 41/46/41
f 39/44/39 35/40/35 33/37/32
f 29/31/29 4/4/4 1/1/1
f 30/32/30 42/47/42 31/34/31
f 4/4/4 42/47/42 30/32/30
f 29/31/29 42/47/42 4/4/4
f 29/31/29 40/45/40 42/47/42
f 5/5/5 40/45/40 29/31/29
f 5/5/5 38/43/38 40/45/40
f 5/5/5 7/7/7 38/43/38
f 3/3/3 6/6/6 5/5/5
f 44/49/44 38/43/38 45/50/45
f 44/49/44 37/42/37 38/43/38
f 46/51/46 37/42/37 44/49/44
f 46/51/46 36/41/36 37/42/37
f 46/51/46 47/52/47 36/41/36
f 46/51/46 48/53/48 47/52/47
f 46/51/46 49/54/49 48/53/48
f 50/55/50 49/54/49 46/51/46
f 50/55/50 11/11/11 49/54/49
f 50/55/50 14/14/14 11/11/11
f 44/49/44 14/14/14 50/55/50
f 44/49/44 51/56/51 14/14/14
f 45/50/45 51/56/51 44/49/44
f 45/50/45 17/17/17 51/56/51
f 52/57/52 17/17/17 45/50/45
f 46/51/46 44/49/44 50/55/50
f 53/58/53 54/59/54 55/60/55
f 53/58/53 56/61/56 54/59/54
f 57/62/57 56/61/56 53/58/53
f 57/62/57 58/63/58 56/61/56
f 59/64/59 58/63/58 57/62/57
f 59/64/59 60/65/60 58/63/58
f 61/66/61 60/65/60 59/64/59
f 61/66/61 62/67/62 60/65/60
f 63/68/63 62/67/62 61/66/61
f 27/69/27 62/67/62 63/68/63
f 10/10/10 62/67/62 27/69/27
f 10/10/10 9/9/9 62/67/62
f 20/20/20 9/9/9 8/8/8
f 22/22/22 9/9/9 20/20/20
f 22/22/22 58/63/58 9/9/9
f 21/21/21 58/63/58 22/22/22
f 21/21/21 56/61/56 58/63/58
f 23/23/23 56/61/56 21/21/21
f 23/23/23 54/59/54 56/61/56
f 25/25/25 54/59/54 23/23/23
f 25/25/25 64/70/64 54/59/54
f 34/38/33 65/71/65 32/39/34
f 34/38/33 66/72/66 65/71/65
f 36/41/36 66/72/66 34/38/33
f 36/41/36 67/73/67 66/72/66
f 47/52/47 67/73/67 36/41/36
f 47/52/47 57/62/57 67/73/67
f 48/53/48 57/62/57 47/52/47
f 48/53/48 59/64/59 57/62/57
f 49/54/49 59/64/59 48/53/48
f 49/54/49 13/13/13 59/64/59
f 11/11/11 13/13/13 49/54/49
f 11/11/11 16/16/16 12/12/12
f 14/14/14 16/16/16 11/11/11
f 51/56/51 15/15/15 14/14/14
f 51/56/51 19/19/19 15/15/15
f 17/17/17 19/19/19 51/56/51
f 52/57/52 18/18/18 17/17/17
f 52/57/52 68/74/68 18/18/18
f 52/57/52 3/3/3 68/74/68
f 52/57/52 6/6/6 3/3/3
f 52/57/52 7/7/7 6/6/6
f 45/50/45 7/7/7 52/57/52
f 45/50/45 38/43/38 7/7/7
f 9/9/9 60/65/60 62/67/62
f 58/63/58 60/65/60 9/9/9
f 53/58/53 67/73/67 57/62/57
f 55/60/55 67/73/67 53/58/53
f 55/60/55 66/72/66 67/73/67
f 55/60/55 65/71/65 66/72/66
f 69/75/69 65/71/65 55/60/55
f 55/60/55 64/70/64 69/75/69
f 55/60/55 54/59/54 64/70/64
f 70/76/70 13/13/13 12/12/12
f 70/76/70 59/64/59 13/13/13
f 70/76/70 61/66/61 59/64/59
f 63/68/63 61/66/61 70/76/70
usemtl blue.png
f 71/77/71 72/78/72 73/79/73
f 71/77/71 74/80/74 72/78/72
f 75/77/75 74/80/74 71/77/71
f 75/77/75 76/80/76 74/80/74
f 77/79/77 76/80/76 75/77/75
f 78/81/78 79/78/79 80/79/80
f 81/82/81 82/83/82 83/84/83
f 84/85/84 82/83/82 81/82/81
f 84/85/84 85/86/85 82/83/82
f 86/87/86 85/86/85 84/85/84
f 87/88/87 88/89/88 89/90/89
f 90/91/90 88/89/88 87/88/87
f 91/92/91 88/89/88 90/91/90
f 92/93/92 88/89/88 91/92/91
f 93/94/93 88/89/88 92/93/92
f 83/95/83 88/89/88 93/94/93
f 82/96/82 88/89/88 83/95/83
f 85/97/85 88/89/88 82/96/82
f 85/97/85 94/98/94 88/89/88
f 78/81/78 95/99/95 96/82/96
f 78/81/78 80/100/80 95/99/95
f 86/87/86 74/80/74 76/80/76
f 84/85/84 74/80/74 86/87/86
f 84/85/84 72/78/72 74/80/74
f 81/82/81 72/78/72 84/85/84
f 81/82/81 97/81/97 72/78/72
f 98/99/98 97/81/97 81/82/81
f 99/100/99 97/81/97 98/99/98
f 73/79/73 97/81/97 99/100/99
f 73/79/73 72/78/72 97/81/97
f 77/79/77 79/78/79 76/80/76
f 80/79/80 79/78/79 77/79/77
f 78/81/78 100/85/100 79/78/79
f 96/82/96 100/85/100 78/81/78
f 96/82/96 89/84/89 100/85/100
f 96/82/96 87/101/87 89/84/89
f 95/99/95 87/101/87 96/82/96
f 101/102/101 87/101/87 95/99/95
f 101/102/101 90/103/90 87/101/87
f 101/102/101 91/104/91 90/103/90
f 102/105/102 91/104/91 101/102/101
f 102/105/102 92/103/92 91/104/91
f 103/102/103 92/103/92 102/105/102
f 98/99/98 92/103/92 103/102/103
f 98/99/98 93/101/93 92/103/92
f 81/82/81 93/101/93 98/99/98
f 81/82/81 83/84/83 93/101/93
f 86/87/86 94/86/94 85/86/85
f 104/87/104 94/86/94 86/87/86
f 104/87/104 88/83/88 94/86/94
f 100/85/100 88/83/88 104/87/104
f 100/85/100 89/84/89 88/83/88
f 104/87/104 79/78/79 100/85/100
f 104/87/104 76/80/76 79/78/79
f 86/87/86 76/80/76 104/87/104
usemtl shirt.png
f 106/106/105 107/107/106 108/108/107
f 109/109/108 107/107/106 106/106/105
f 109/109/108 110/110/109 107/107/106
f 111/111/110 110/110/109 109/109/108
f 112/112/111 110/110/109 111/111/110
f 113/113/112 110/110/109 112/112/111
f 114/114/113 110/110/109 113/113/112
f 114/114/113 107/107/106 110/110/109
f 115/115/114 107/107/106 114/114/113
f 115/115/114 108/108/107 107/107/106
f 116/116/115 108/108/107 115/115/114
f 116/116/115 117/117/116 108/108/107
f 118/118/117 117/117/116 116/116/115
f 105/119/118 120/120/119 109/109/108
f 109/109/108 120/120/119 111/111/110
f 119/121/120 108/108/107 117/117/116
f 106/106/105 108/108/107 119/121/120
f 116/116/115 121/122/121 118/118/117
f 111/123/110 122/124/122 112/125/111
f 111/123/110 123/126/123 122/124/122
f 111/123/110 124/127/124 123/126/123
f 120/128/119 124/127/124 111/123/110
f 125/129/125 123/126/123 124/127/124
f 126/130/126 123/126/123 125/129/125
f 126/130/126 122/124/122 123/126/123
f 126/130/126 127/131/127 122/124/122
f 128/132/128 127/131/127 126/130/126
f 128/132/128 129/133/129 127/131/127
f 128/132/128 130/134/130 129/133/129
f 131/135/131 130/134/130 128/132/128
f 131/135/131 132/136/132 130/134/130
f 133/137/133 132/136/132 131/135/131
f 133/137/133 121/138/121 132/136/132
f 133/137/133 118/139/117 121/138/121
f 126/130/126 125/129/125 128/132/128
f 127/140/127 134/140/134 122/140/122
f 129/140/129 134/140/134 127/140/127
f 130/140/130 134/140/134 129/140/129
f 132/140/132 134/140/134 130/140/130
f 121/140/121 134/140/134 132/140/132
f 116/140/115 134/140/134 121/140/121
f 115/140/114 134/140/134 116/140/115
f 114/140/113 134/140/134 115/140/114
f 113/140/112 134/140/134 114/140/113
f 112/140/111 134/140/134 113/140/112
f 112/140/111 122/140/122 134/140/134
