# Blender v2.75 (sub 0) OBJ File: ''
# www.blender.org
mtllib GokuLThigh.mtl
o Mesh.103_DrawCall_144
v -0.455115 7.480386 -0.511772
v -0.670151 0.404305 -0.339024
v 0.646004 0.012153 -0.248121
v 0.205962 0.323456 -0.754474
v 0.218157 0.451389 -0.629811
v 0.680553 0.573901 -0.236873
v 0.500442 0.868464 0.635480
v 0.765296 0.250834 0.613188
v -0.686977 0.290157 0.856989
v -0.696075 0.298607 0.147171
v -0.834650 0.230855 -0.202156
v -0.631298 0.689639 1.236404
v -0.810159 -0.153402 -0.124026
v -0.471676 0.154836 -0.715427
v -0.638811 -0.877537 -0.236917
v -0.495564 0.484351 -0.636789
v 0.059412 0.947997 -0.608763
v 0.050779 1.070708 -0.654923
v -0.707604 0.227980 -0.219209
v -0.708104 -0.164801 -0.090199
v 0.023224 1.212703 -0.687869
v 0.410244 0.932603 -0.152638
v 0.094842 0.689544 -0.516528
v 0.147699 0.714585 -0.808544
v 0.904134 -0.086331 -0.260277
v 0.804670 -0.549413 0.525606
v 1.056322 -0.576926 0.498837
v 0.598821 -0.914299 1.042571
v 0.960701 -0.932802 0.356226
v 0.595370 -1.099133 0.843859
v -0.109582 -1.199081 0.894138
v -0.552800 -1.146474 0.464337
v -0.705128 -0.806314 0.627284
v -0.102518 -1.013503 1.093385
v -0.525459 -0.746020 0.626054
v 0.353876 0.001095 1.190014
v -0.754055 0.105552 0.666503
v -0.255215 -0.091993 1.193184
v 0.162790 0.763305 1.159786
v 0.290941 1.934689 0.565665
v 0.274892 1.927857 -0.136194
v -0.713156 0.118492 0.649112
v -0.368130 0.474501 1.119744
v 0.067105 1.528991 1.015560
v 0.307282 -0.536083 -0.671972
v 0.753843 -0.669808 -0.334732
v -0.383750 -0.636397 -0.622108
vt 0.581050 0.424960
vt 0.713530 0.433590
vt 0.710940 0.535160
vt 0.580080 0.583010
vt 0.463870 0.723850
vt 0.462890 0.571290
vt 0.078130 0.718750
vt 0.007810 0.718750
vt 0.010960 0.642400
vt 0.988280 0.441410
vt 0.861970 0.438810
vt 0.988040 0.270940
vt 0.988280 0.644530
vt 0.867190 0.644530
vt 0.986330 0.718750
vt 0.585940 0.722660
vt 0.710940 0.765630
vt 0.710940 0.796880
vt 0.710940 0.742190
vt 0.710940 0.691410
vt 0.890630 0.718750
vt 0.710940 0.605470
vt 0.581050 0.372590
vt 0.463870 0.361150
vt 0.462890 0.331050
vt 0.351350 0.321290
vt 0.463870 0.263120
vt 0.351350 0.263120
vt 0.128910 0.328430
vt 0.249510 0.321290
vt 0.128660 0.361880
vt 0.128910 0.259190
vt 0.249510 0.263120
vt 0.351350 0.565280
vt 0.010960 0.270900
vt 0.010960 0.442900
vt 0.128910 0.591610
vt 0.249510 0.565280
vt 0.351350 0.723850
vt 0.463870 0.866520
vt 0.588010 0.867070
vt 0.156250 0.718750
vt 0.252780 0.707980
vt 0.351350 0.866520
vt 0.581050 0.274840
vt 0.712890 0.297760
vt 0.860110 0.297760
vn 0.802400 0.596700 0.010300
vn 0.347500 0.330000 -0.877700
vn 0.537000 0.055800 -0.841700
vn 0.886700 0.267000 -0.377400
vn 0.905900 0.294000 0.304900
vn 0.940600 0.173000 0.292100
vn 0.011400 0.732500 -0.680700
vn -0.489500 0.871600 0.025100
vn -0.916700 0.345700 -0.200200
vn -0.971500 -0.132700 -0.196300
vn -0.478100 -0.001400 -0.878300
vn -0.932400 -0.220400 -0.286400
vn -0.512700 0.665300 -0.542700
vn 0.858500 0.399400 -0.321500
vn 0.807200 -0.040700 -0.588900
vn 0.827600 0.082600 -0.555200
vn 0.622800 -0.215500 -0.752100
vn -0.238700 0.703200 -0.669700
vn -0.384600 0.870300 -0.307600
vn 0.061500 0.436600 -0.897500
vn 0.834100 0.513000 -0.202500
vn 0.616600 0.577800 0.534700
vn 0.862500 0.335400 0.378900
vn 0.534700 -0.303000 0.788800
vn 0.954700 -0.290900 0.061300
vn 0.527800 -0.626500 0.573400
vn -0.818600 0.100700 0.565400
vn -0.276000 -0.443800 0.852600
vn -0.637400 0.346800 0.688000
vn -0.817000 -0.503800 0.280400
vn -0.310200 -0.690100 0.653800
vn 0.458400 0.054900 0.887000
vn -0.948100 -0.081300 0.307400
vn -0.366700 -0.135000 0.920400
vn 0.369200 0.193200 0.909000
vn 0.966300 0.182000 0.181700
vn 0.971300 0.135300 -0.195500
vn 1.000000 0.000900 0.006500
vn 0.067300 -0.130200 0.989200
vn 0.234600 0.123100 0.964300
vn 0.644600 0.189600 0.740600
vn 0.801900 -0.109300 -0.587400
vn 0.330200 -0.057100 -0.942200
vn -0.512800 -0.156500 -0.844100
usemtl pants.png
s 1
f 3/1/1 4/2/2 5/3/3
f 6/4/4 7/5/5 8/6/6
f 9/7/7 10/8/8 11/9/9
f 13/10/10 14/11/11 15/12/12
f 13/10/10 11/13/9 14/11/11
f 14/11/11 16/14/13 4/2/2
f 11/13/9 16/14/13 14/11/11
f 10/15/8 16/14/13 11/13/9
f 22/16/14 18/17/15 21/18/16
f 22/16/14 17/19/17 18/17/15
f 23/20/18 17/19/17 22/16/14
f 23/20/18 2/21/19 17/19/17
f 24/22/20 2/21/19 23/20/18
f 24/22/20 16/14/13 2/21/19
f 5/3/3 16/14/13 24/22/20
f 5/3/3 4/2/2 16/14/13
f 3/1/1 25/23/21 4/2/2
f 26/24/22 25/23/21 3/1/1
f 26/24/22 27/25/23 25/23/21
f 28/26/24 27/25/23 26/24/22
f 28/26/24 29/27/25 27/25/23
f 30/28/26 29/27/25 28/26/24
f 3/1/1 8/6/6 26/24/22
f 3/1/1 6/4/4 8/6/6
f 5/3/3 6/4/4 3/1/1
f 5/3/3 24/22/20 6/4/4
f 33/29/27 34/30/28 35/31/29
f 32/32/30 34/30/28 33/29/27
f 31/33/31 34/30/28 32/32/30
f 30/28/26 34/30/28 31/33/31
f 28/26/24 34/30/28 30/28/26
f 28/26/24 36/34/32 34/30/28
f 26/24/22 36/34/32 28/26/24
f 8/6/6 36/34/32 26/24/22
f 8/6/6 7/5/5 36/34/32
f 6/4/4 22/16/14 7/5/5
f 24/22/20 22/16/14 6/4/4
f 24/22/20 23/20/18 22/16/14
f 33/29/27 15/35/12 32/32/30
f 33/29/27 13/36/10 15/35/12
f 35/31/29 13/36/10 33/29/27
f 35/31/29 37/37/33 13/36/10
f 34/30/28 37/37/33 35/31/29
f 34/30/28 38/38/34 37/37/33
f 36/34/32 38/38/34 34/30/28
f 36/34/32 39/39/35 38/38/34
f 7/5/5 39/39/35 36/34/32
f 7/5/5 40/40/36 39/39/35
f 22/16/14 40/40/36 7/5/5
f 22/16/14 41/41/37 40/40/36
f 21/18/16 41/41/37 22/16/14
f 42/37/38 20/36/38 19/9/38
f 37/37/33 12/42/39 9/7/7
f 38/38/34 12/42/39 37/37/33
f 38/38/34 43/43/40 12/42/39
f 39/39/35 43/43/40 38/38/34
f 39/39/35 44/44/41 43/43/40
f 40/40/36 44/44/41 39/39/35
f 37/37/33 11/9/9 13/36/10
f 9/7/7 11/9/9 37/37/33
f 12/42/39 43/43/40 44/44/41
f 46/45/42 4/2/2 25/23/21
f 45/46/43 4/2/2 46/45/42
f 45/46/43 14/11/11 4/2/2
f 47/47/44 14/11/11 45/46/43
f 47/47/44 15/12/12 14/11/11
f 46/45/42 27/25/23 29/27/25
f 25/23/21 27/25/23 46/45/42
