# Blender v2.78 (sub 0) OBJ File: ''
# www.blender.org
mtllib ShikamaruArmBand.mtl
o 5_Upper_Body_1_0_0
v -0.017285 -0.002030 0.046023
v 0.013335 0.004326 -0.007967
v 0.002295 0.000218 0.024195
v -0.014511 0.034634 -0.033087
v -0.011810 0.038370 -0.008235
v 0.019588 0.000130 -0.033011
v 0.022820 0.003314 -0.008235
v -0.014511 0.034634 0.016616
v 0.019588 0.000130 0.016540
v -0.024893 0.006346 -0.066191
v -0.016393 -0.002722 -0.066546
v -0.016442 0.016910 -0.052568
v 0.002724 -0.002902 -0.052402
v -0.024893 0.006346 0.049720
v -0.016442 0.016910 0.036097
v -0.016393 -0.002722 0.050076
v 0.002724 -0.002902 0.035931
v -0.007422 -0.011326 0.049668
v 0.011449 -0.006662 -0.052888
v -0.020615 0.025774 -0.052982
v -0.020615 0.025774 0.036512
v 0.011448 -0.006662 0.036417
v 0.010781 -0.011182 -0.052295
v 0.019308 -0.004318 -0.032402
v 0.016038 0.004898 -0.008235
v 0.022690 -0.001062 -0.008235
v 0.019308 -0.004318 0.015932
v 0.010781 -0.011182 0.035825
v -0.025159 0.025170 -0.052402
v -0.018977 0.034422 -0.032488
v -0.009829 0.031698 -0.008235
v -0.016203 0.038306 -0.008235
v -0.018977 0.034422 0.016017
v 0.001180 -0.009494 -0.062639
v 0.011892 -0.009182 -0.052766
v 0.004399 -0.013258 -0.061326
v 0.003109 -0.015334 -0.061041
v -0.001249 -0.012658 -0.065181
v -0.002678 -0.014710 -0.064982
v -0.007422 -0.011326 -0.066138
v -0.005873 -0.009358 -0.066312
v -0.022475 0.015582 -0.061902
v -0.022899 0.007862 -0.066362
v -0.026144 0.012526 -0.065255
v -0.028222 0.011130 -0.065058
v -0.023137 0.026250 -0.052870
v -0.017060 0.035334 -0.032977
v -0.014301 0.039190 -0.008235
v -0.017060 0.035334 0.016507
v -0.028938 0.017082 -0.061136
v -0.026836 0.018338 -0.061418
v -0.023137 0.026250 0.036399
v -0.022475 0.015582 0.045431
v 0.001180 -0.009494 0.046168
v -0.022899 0.007862 0.049892
v -0.005873 -0.009358 0.049841
v 0.011892 -0.009182 0.036295
v 0.020253 -0.002418 0.016423
v 0.023604 0.000818 -0.008235
v 0.020253 -0.002418 -0.032894
v -0.026144 0.012526 0.048785
v -0.028222 0.011130 0.048588
v -0.028938 0.017082 0.044665
v -0.025159 0.025170 0.035931
v -0.026836 0.018338 0.044947
v 0.003109 -0.015334 0.044570
v 0.004399 -0.013258 0.044855
v -0.001249 -0.012658 0.048711
v -0.002678 -0.014710 0.048512
v -0.020011 0.019310 0.040254
v -0.022132 0.018654 0.042205
v -0.018061 0.017502 0.044206
v -0.022723 0.016514 0.044151
v -0.021349 0.014134 0.044896
v -0.017593 0.018006 0.039497
v -0.016219 0.015626 0.040241
v -0.016809 0.013486 0.042186
v -0.018931 0.012830 0.044138
v 0.000973 -0.001974 0.040178
v -0.001145 -0.002630 0.042128
v 0.002923 -0.003778 0.044130
v -0.001737 -0.004770 0.044075
v -0.000363 -0.007150 0.044819
v 0.003393 -0.003274 0.039421
v 0.004767 -0.005654 0.040164
v 0.004177 -0.007798 0.042110
v 0.002055 -0.008454 0.044062
v -0.011552 0.006362 0.043456
v -0.013731 0.005642 0.045320
v -0.009721 0.004430 0.047406
v -0.014378 0.003442 0.047179
v -0.013025 0.001038 0.047889
v -0.009109 0.005082 0.042730
v -0.007758 0.002682 0.043440
v -0.008405 0.000478 0.045298
v -0.010582 -0.000238 0.047164
v -0.020011 0.019310 -0.056725
v -0.018061 0.017502 -0.060677
v -0.022132 0.018654 -0.058676
v -0.022723 0.016514 -0.060622
v -0.017593 0.018006 -0.055968
v -0.016219 0.015626 -0.056712
v -0.016809 0.013486 -0.058658
v -0.018931 0.012830 -0.060609
v -0.021349 0.014134 -0.061367
v 0.000973 -0.001974 -0.056648
v 0.002923 -0.003778 -0.060600
v -0.001145 -0.002630 -0.058600
v -0.001737 -0.004770 -0.060546
v 0.003393 -0.003274 -0.055892
v 0.004767 -0.005654 -0.056635
v 0.004177 -0.007798 -0.058581
v 0.002055 -0.008454 -0.060533
v -0.000363 -0.007150 -0.061290
v -0.011552 0.006362 -0.059927
v -0.009721 0.004430 -0.063877
v -0.013731 0.005642 -0.061791
v -0.014378 0.003442 -0.063650
v -0.009109 0.005082 -0.059201
v -0.007758 0.002682 -0.059911
v -0.008405 0.000478 -0.061769
v -0.010582 -0.000238 -0.063635
v -0.013025 0.001038 -0.064360
vt 0.9805 0.5076
vt 0.9805 0.7407
vt 0.8755 0.7441
vt 0.8755 0.5073
vt 0.7705 0.7407
vt 0.7705 0.5076
vt 0.7949 0.8207
vt 0.7949 0.7758
vt 0.7964 0.7756
vt 0.7983 0.8207
vt 0.7964 0.7756
vt 0.7949 0.7758
vt 0.7949 0.8207
vt 0.7983 0.8207
vt 0.7983 0.7756
vt 0.7964 0.7100
vt 0.7964 0.7017
vt 0.7979 0.7019
vt 0.7979 0.7095
vt 0.7925 0.7019
vt 0.7925 0.7100
vt 0.7915 0.7097
vt 0.7915 0.7019
vt 0.8003 0.8207
vt 0.7998 0.7756
vt 0.8008 0.7756
vt 0.8008 0.8207
vt 0.8008 0.7756
vt 0.8008 0.7756
vt 0.8003 0.8207
vt 0.7998 0.7756
vt 0.7920 0.7975
vt 0.7930 0.7975
vt 0.7925 0.8207
vt 0.7915 0.8207
vt 0.7915 0.7975
vt 0.7920 0.7975
vt 0.7925 0.8207
vt 0.7988 0.7029
vt 0.7979 0.7017
vt 0.7988 0.7019
vt 0.7988 0.7019
vt 0.7988 0.7026
vt 0.7993 0.7026
vt 0.7993 0.7036
vt 0.7979 0.7014
vt 0.7964 0.7012
vt 0.7993 0.7036
vt 0.7988 0.7085
vt 0.7993 0.7078
vt 0.7988 0.7087
vt 0.7993 0.7078
vt 0.7993 0.7087
vt 0.7979 0.7100
vt 0.7964 0.7102
vt 0.7944 0.7100
vt 0.7944 0.7104
vt 0.7930 0.7102
vt 0.7944 0.7104
vt 0.7930 0.7104
vt 0.7993 0.7058
vt 0.7988 0.7095
vt 0.7988 0.7095
vt 0.7979 0.7100
vt 0.7964 0.7104
vt 0.7930 0.7100
vt 0.7915 0.7100
vt 0.7905 0.7087
vt 0.7905 0.7029
vt 0.7900 0.7078
vt 0.7900 0.7039
vt 0.7900 0.7058
vt 0.7900 0.7039
vt 0.7910 0.7017
vt 0.7930 0.7019
vt 0.7930 0.7014
vt 0.7944 0.7017
vt 0.7944 0.7014
vt 0.7964 0.7014
vt 0.7944 0.7012
vt 0.7930 0.7014
vt 0.7900 0.7078
vt 0.7900 0.7087
vt 0.7900 0.7087
vt 0.7905 0.7097
vt 0.7910 0.7100
vt 0.7905 0.7095
vt 0.7910 0.7017
vt 0.7905 0.7019
vt 0.7905 0.7021
vt 0.7900 0.7029
vt 0.7900 0.7029
vt 0.8022 0.6404
vt 0.7256 0.6404
vt 0.7256 0.6404
vt 0.7256 0.6399
vt 0.7256 0.6399
vt 0.7256 0.6399
vt 0.7256 0.6399
vt 0.7256 0.6404
vt 0.7256 0.6404
vt 0.8022 0.6404
vt 0.7256 0.6404
vt 0.7256 0.6404
vt 0.7256 0.6399
vt 0.7256 0.6399
vt 0.7256 0.6399
vt 0.7256 0.6399
vt 0.7256 0.6404
vt 0.7256 0.6404
vt 0.8022 0.6404
vt 0.7256 0.6404
vt 0.7256 0.6404
vt 0.7256 0.6399
vt 0.7256 0.6399
vt 0.7256 0.6399
vt 0.7256 0.6399
vt 0.7256 0.6404
vt 0.7256 0.6404
vt 0.7256 0.6404
vt 0.7256 0.6404
vt 0.8022 0.6404
vt 0.7256 0.6399
vt 0.7256 0.6399
vt 0.7256 0.6399
vt 0.7256 0.6404
vt 0.7256 0.6404
vt 0.7256 0.6399
vt 0.7256 0.6404
vt 0.7256 0.6404
vt 0.8022 0.6404
vt 0.7256 0.6399
vt 0.7256 0.6399
vt 0.7256 0.6399
vt 0.7256 0.6404
vt 0.7256 0.6404
vt 0.7256 0.6399
vt 0.7256 0.6404
vt 0.7256 0.6404
vt 0.8022 0.6404
vt 0.7256 0.6399
vt 0.7256 0.6399
vt 0.7256 0.6399
vt 0.7256 0.6404
vt 0.7256 0.6404
vt 0.7256 0.6399
vt 0.7983 0.7756
vt 0.7930 0.8207
vt 0.7935 0.7975
vt 0.7944 0.8207
vt 0.7939 0.7778
vt 0.7988 0.8207
vt 0.7988 0.7756
vt 0.7998 0.8207
vt 0.7998 0.7756
vt 0.7998 0.8207
vt 0.7998 0.7756
vt 0.7988 0.8207
vt 0.7988 0.7756
vt 0.7944 0.8207
vt 0.7939 0.7778
vt 0.7930 0.8207
vt 0.7935 0.7975
vt 0.7930 0.7975
vt 0.7993 0.8207
vt 0.7993 0.8207
vt 0.7935 0.8207
vt 0.7935 0.8207
vn 0.8269 0.4632 -0.3190
vn 0.4718 0.8185 -0.3278
vn 0.5264 0.8503 0.0000
vn 0.8546 0.5194 -0.0000
vn 0.4717 0.8185 0.3278
vn 0.8268 0.4632 0.3190
vn -0.5676 -0.5418 0.6199
vn -0.7477 -0.5476 -0.3756
vn -0.6472 -0.6333 -0.4243
vn -0.5444 -0.5702 0.6153
vn -0.6472 -0.6333 0.4243
vn -0.7477 -0.5476 0.3756
vn -0.5676 -0.5418 -0.6199
vn -0.5444 -0.5702 -0.6153
vn -0.5534 -0.7404 0.3815
vn 0.7308 0.3403 -0.5918
vn 0.3470 0.7158 -0.6059
vn 0.3470 0.7158 0.6060
vn 0.7307 0.3404 0.5918
vn 0.2478 -0.9514 0.1830
vn 0.3528 -0.9301 0.1022
vn -0.6080 -0.7939 0.0000
vn 0.2777 -0.9607 -0.0000
vn 0.3524 -0.9302 -0.1023
vn 0.2481 -0.9513 -0.1829
vn -0.9371 0.3412 0.0734
vn -0.9613 0.2344 0.1449
vn -0.7726 -0.6350 0.0000
vn -0.9610 0.2765 0.0000
vn -0.9372 0.3409 -0.0734
vn 0.5345 0.3612 -0.7641
vn 0.8575 -0.1937 -0.4766
vn 0.7032 -0.1634 -0.6920
vn 0.1078 -0.9941 -0.0115
vn 0.4134 -0.0586 -0.9086
vn -0.2545 -0.9140 -0.3160
vn -0.5534 -0.7404 -0.3815
vn 0.2412 0.1368 -0.9608
vn 0.3905 0.5288 -0.7536
vn 0.1480 0.2443 -0.9583
vn -0.0290 0.4116 -0.9109
vn -0.9147 -0.2545 -0.3139
vn -0.1806 0.8401 -0.5115
vn -0.0962 0.9588 -0.2673
vn -0.0321 0.9995 -0.0000
vn -0.0963 0.9588 0.2673
vn -0.9951 0.0952 -0.0279
vn -0.1373 0.6803 -0.7199
vn -0.1806 0.8401 0.5115
vn 0.3903 0.5292 0.7534
vn 0.5349 0.3609 0.7639
vn 0.1459 0.2441 0.9587
vn 0.2408 0.1343 0.9613
vn 0.8575 -0.1937 0.4766
vn 0.9650 -0.1059 0.2397
vn 0.9991 -0.0425 -0.0000
vn 0.9650 -0.1059 -0.2397
vn -0.0290 0.4116 0.9109
vn -0.9147 -0.2545 0.3139
vn -0.9951 0.0952 0.0279
vn -0.9613 0.2345 -0.1449
vn -0.1373 0.6803 0.7199
vn 0.1078 -0.9941 0.0118
vn 0.7032 -0.1635 0.6920
vn 0.4134 -0.0587 0.9087
vn -0.2545 -0.9140 0.3159
vn 0.4949 0.5052 0.7070
vn 0.2998 0.9150 0.2702
vn -0.0435 0.8255 0.5627
vn -0.1139 0.4870 0.8659
vn 0.1023 0.1026 0.9895
vn 0.6894 0.7098 0.1445
vn 0.9071 0.3251 0.2675
vn 0.8286 -0.0232 0.5594
vn 0.4922 -0.1042 0.8642
vn 0.4944 0.5057 0.7070
vn 0.2996 0.9150 0.2703
vn -0.0435 0.8256 0.5626
vn -0.1139 0.4868 0.8660
vn 0.1025 0.1025 0.9894
vn 0.6896 0.7096 0.1448
vn 0.9069 0.3251 0.2679
vn 0.8284 -0.0229 0.5597
vn 0.4922 -0.1039 0.8642
vn 0.4727 0.4827 0.7373
vn 0.2908 0.9058 0.3083
vn -0.0613 0.8072 0.5870
vn -0.1402 0.4597 0.8770
vn 0.0725 0.0711 0.9948
vn 0.6845 0.7044 0.1877
vn 0.8983 0.3164 0.3050
vn 0.8114 -0.0410 0.5831
vn 0.4662 -0.1315 0.8748
vn -0.0434 0.8256 -0.5626
vn 0.3001 0.9148 -0.2704
vn 0.4949 0.5053 -0.7070
vn -0.1139 0.4870 -0.8659
vn 0.6898 0.7095 -0.1445
vn 0.9071 0.3251 -0.2675
vn 0.8286 -0.0232 -0.5594
vn 0.4922 -0.1042 -0.8642
vn 0.1024 0.1026 -0.9894
vn -0.0435 0.8256 -0.5626
vn 0.2993 0.9151 -0.2701
vn 0.4946 0.5053 -0.7072
vn -0.1139 0.4869 -0.8660
vn 0.6896 0.7096 -0.1448
vn 0.9070 0.3251 -0.2679
vn 0.8284 -0.0229 -0.5597
vn 0.4922 -0.1039 -0.8643
vn 0.1025 0.1025 -0.9894
vn -0.0613 0.8073 -0.5870
vn 0.2905 0.9060 -0.3079
vn 0.4727 0.4827 -0.7373
vn -0.1401 0.4597 -0.8770
vn 0.6844 0.7045 -0.1877
vn 0.8982 0.3164 -0.3051
vn 0.8114 -0.0409 -0.5831
vn 0.4662 -0.1314 -0.8749
vn 0.0725 0.0711 -0.9948
usemtl 5_Upper_Body_1_0_0
s 1
f 6/1/1 4/2/2 5/3/3
f 5/3/3 7/4/4 6/1/1
f 5/3/3 8/5/5 9/6/6
f 9/6/6 7/4/4 5/3/3
f 12/7/7 10/8/8 11/9/9
f 11/9/9 13/10/10 12/7/7
f 16/11/11 14/12/12 15/13/13
f 15/13/13 17/14/14 16/11/11
f 18/15/15 16/11/11 17/14/14
f 4/16/2 6/17/1 19/18/16
f 19/18/16 20/19/17 4/16/2
f 9/20/6 8/21/5 21/22/18
f 21/22/18 22/23/19 9/20/6
f 13/24/10 23/25/20 24/26/21
f 24/26/21 25/27/22 13/24/10
f 25/27/22 24/26/21 26/28/23
f 26/28/23 27/29/24 25/27/22
f 17/30/14 25/27/22 27/29/24
f 27/29/24 28/31/25 17/30/14
f 30/32/26 29/33/27 12/34/7
f 12/34/7 31/35/28 30/32/26
f 32/36/29 30/32/26 31/35/28
f 31/35/28 33/37/30 32/36/29
f 15/38/13 33/37/30 31/35/28
f 34/39/31 20/19/17 19/18/16
f 19/18/16 35/40/32 34/39/31
f 36/41/33 34/39/31 35/40/32
f 35/40/32 37/42/34 36/41/33
f 38/43/35 36/41/33 37/42/34
f 37/42/34 39/44/36 38/43/35
f 40/45/37 38/43/35 39/44/36
f 23/46/20 37/42/34 35/40/32
f 35/40/32 24/47/21 23/46/20
f 34/39/31 36/41/33 38/43/35
f 38/43/35 41/48/38 34/39/31
f 42/49/39 34/39/31 41/48/38
f 41/48/38 43/50/40 42/49/39
f 44/51/41 42/49/39 43/50/40
f 43/50/40 10/52/8 44/51/41
f 45/53/42 44/51/41 10/52/8
f 20/19/17 34/39/31 42/49/39
f 42/49/39 46/54/43 20/19/17
f 4/16/2 20/19/17 46/54/43
f 46/54/43 47/55/44 4/16/2
f 5/56/3 4/16/2 47/55/44
f 47/55/44 48/57/45 5/56/3
f 49/58/46 5/56/3 48/57/45
f 48/57/45 32/59/29 49/58/46
f 33/60/30 49/58/46 32/59/29
f 41/48/38 38/43/35 40/45/37
f 40/45/37 11/61/9 41/48/38
f 43/50/40 41/48/38 11/61/9
f 11/61/9 10/52/8 43/50/40
f 44/51/41 45/53/42 50/62/47
f 50/62/47 51/63/48 44/51/41
f 42/49/39 44/51/41 51/63/48
f 51/63/48 46/54/43 42/49/39
f 46/54/43 51/63/48 50/62/47
f 50/62/47 29/64/27 46/54/43
f 30/65/26 46/54/43 29/64/27
f 47/55/44 46/54/43 30/65/26
f 30/65/26 32/59/29 47/55/44
f 48/57/45 47/55/44 32/59/29
f 8/66/5 5/56/3 49/58/46
f 49/58/46 52/67/49 8/66/5
f 21/22/18 8/66/5 52/67/49
f 52/67/49 53/68/50 21/22/18
f 54/69/51 21/22/18 53/68/50
f 53/68/50 55/70/52 54/69/51
f 56/71/53 54/69/51 55/70/52
f 55/70/52 16/72/11 56/71/53
f 18/73/15 56/71/53 16/72/11
f 22/23/19 21/22/18 54/69/51
f 54/69/51 57/74/54 22/23/19
f 9/75/6 22/23/19 57/74/54
f 57/74/54 58/76/55 9/75/6
f 7/77/4 9/75/6 58/76/55
f 58/76/55 59/78/56 7/77/4
f 60/79/57 7/77/4 59/78/56
f 59/78/56 26/80/23 60/79/57
f 24/47/21 60/79/57 26/80/23
f 6/17/1 7/77/4 60/79/57
f 60/79/57 35/40/32 6/17/1
f 19/18/16 6/17/1 35/40/32
f 26/80/23 59/78/56 58/76/55
f 58/76/55 27/81/24 26/80/23
f 14/82/12 16/72/11 55/70/52
f 55/70/52 61/83/58 14/82/12
f 62/84/59 14/82/12 61/83/58
f 61/83/58 63/85/60 62/84/59
f 52/67/49 49/58/46 33/60/30
f 33/60/30 64/86/61 52/67/49
f 63/85/60 52/67/49 64/86/61
f 61/83/58 55/70/52 53/68/50
f 53/68/50 65/87/62 61/83/58
f 63/85/60 61/83/58 65/87/62
f 65/87/62 52/67/49 63/85/60
f 27/81/24 58/76/55 57/74/54
f 57/74/54 28/88/25 27/81/24
f 66/89/63 28/88/25 57/74/54
f 57/74/54 67/90/64 66/89/63
f 68/91/65 66/89/63 67/90/64
f 67/90/64 54/69/51 68/91/65
f 56/71/53 68/91/65 54/69/51
f 69/92/66 66/89/63 68/91/65
f 68/91/65 18/73/15 69/92/66
f 72/93/67 70/94/68 71/95/69
f 71/95/69 73/96/70 72/93/67
f 74/97/71 72/93/67 73/96/70
f 75/98/72 70/94/68 72/93/67
f 72/93/67 76/99/73 75/98/72
f 77/100/74 76/99/73 72/93/67
f 72/93/67 78/101/75 77/100/74
f 81/102/76 79/103/77 80/104/78
f 80/104/78 82/105/79 81/102/76
f 83/106/80 81/102/76 82/105/79
f 84/107/81 79/103/77 81/102/76
f 81/102/76 85/108/82 84/107/81
f 86/109/83 85/108/82 81/102/76
f 81/102/76 87/110/84 86/109/83
f 90/111/85 88/112/86 89/113/87
f 89/113/87 91/114/88 90/111/85
f 92/115/89 90/111/85 91/114/88
f 93/116/90 88/112/86 90/111/85
f 90/111/85 94/117/91 93/116/90
f 95/118/92 94/117/91 90/111/85
f 90/111/85 96/119/93 95/118/92
f 99/120/94 97/121/95 98/122/96
f 98/122/96 100/123/97 99/120/94
f 98/122/96 97/121/95 101/124/98
f 101/124/98 102/125/99 98/122/96
f 103/126/100 98/122/96 102/125/99
f 98/122/96 103/126/100 104/127/101
f 104/127/101 105/128/102 98/122/96
f 100/123/97 98/122/96 105/128/102
f 108/129/103 106/130/104 107/131/105
f 107/131/105 109/132/106 108/129/103
f 107/131/105 106/130/104 110/133/107
f 110/133/107 111/134/108 107/131/105
f 112/135/109 107/131/105 111/134/108
f 107/131/105 112/135/109 113/136/110
f 113/136/110 114/137/111 107/131/105
f 109/132/106 107/131/105 114/137/111
f 117/138/112 115/139/113 116/140/114
f 116/140/114 118/141/115 117/138/112
f 116/140/114 115/139/113 119/142/116
f 119/142/116 120/143/117 116/140/114
f 121/144/118 116/140/114 120/143/117
f 116/140/114 121/144/118 122/145/119
f 122/145/119 123/146/120 116/140/114
f 118/141/115 116/140/114 123/146/120
f 57/74/54 54/69/51 67/90/64
f 18/73/15 68/91/65 56/71/53
f 53/68/50 52/67/49 65/87/62
f 13/10/10 11/9/9 40/147/37
f 12/148/7 29/33/27 50/149/47
f 12/150/7 45/151/42 10/8/8
f 13/152/10 40/147/37 39/153/36
f 13/154/10 37/155/34 23/25/20
f 17/156/14 28/31/25 66/157/63
f 17/158/14 69/159/66 18/15/15
f 15/160/13 14/12/12 62/161/59
f 15/162/13 63/163/60 64/164/61
f 17/165/14 66/157/63 69/159/66
f 13/166/10 39/153/36 37/155/34
f 12/167/7 50/149/47 45/151/42
f 15/168/13 62/161/59 63/163/60
f 72/93/67 74/97/71 78/101/75
f 81/102/76 83/106/80 87/110/84
f 90/111/85 92/115/89 96/119/93
f 24/47/21 35/40/32 60/79/57
f 33/37/30 15/38/13 64/164/61
l 2 3
l 1 3
